# MagicaVoxel @ Ephtracy

# group
o 

# material
mtllib helper.mtl
usemtl palette

# normals
vn -1 0 0
vn 1 0 0
vn 0 0 1
vn 0 0 -1
vn 0 -1 0
vn 0 1 0

# texcoords
vt 0.0332031 0.5
vt 0.103516 0.5
vt 0.134766 0.5
vt 0.138672 0.5

# verts
v -0.4 0.1 0.2
v -0.4 0.1 0.1
v -0.4 0.2 0.2
v -0.4 0.2 0.1
v -0.3 0.1 0.1
v -0.3 0.1 5.96046e-008
v -0.3 0.2 0.1
v -0.3 0.2 5.96046e-008
v -0.2 0 -0.2
v -0.2 0 -0.3
v -0.2 0.1 0.6
v -0.2 0.1 0.4
v -0.2 0.1 0.3
v -0.2 0.1 0.2
v -0.2 0.1 5.96046e-008
v -0.2 0.1 -0.1
v -0.2 0.1 -0.3
v -0.2 0.1 -0.6
v -0.2 0.2 0.6
v -0.2 0.2 0.4
v -0.2 0.2 0.3
v -0.2 0.2 0.2
v -0.2 0.2 5.96046e-008
v -0.2 0.2 -0.1
v -0.2 0.2 -0.3
v -0.2 0.2 -0.5
v -0.2 0.2 -0.6
v -0.2 0.3 -0.2
v -0.2 0.3 -0.5
v -0.1 0 0.3
v -0.1 0 5.96046e-008
v -0.1 0.1 0.4
v -0.1 0.1 0.3
v -0.1 0.1 0.2
v -0.1 0.1 5.96046e-008
v -0.1 0.1 -0.1
v -0.1 0.1 -0.2
v -0.1 0.2 0.4
v -0.1 0.2 0.3
v -0.1 0.2 0.2
v -0.1 0.2 0.1
v -0.1 0.2 -0.1
v -0.1 0.2 -0.2
v -0.1 0.3 0.3
v -0.1 0.3 0.1
v 0.1 0 -0.2
v 0.1 0 -0.3
v 0.1 0.1 0.6
v 0.1 0.1 0.5
v 0.1 0.1 -0.2
v 0.1 0.1 -0.3
v 0.1 0.1 -0.6
v 0.1 0.2 0.6
v 0.1 0.2 0.5
v 0.1 0.2 -0.2
v 0.1 0.2 -0.3
v 0.1 0.2 -0.5
v 0.1 0.2 -0.6
v 0.1 0.3 -0.2
v 0.1 0.3 -0.5
v -0.1 0 -0.2
v -0.1 0 -0.3
v -0.1 0.1 0.6
v -0.1 0.1 0.5
v -0.1 0.1 -0.2
v -0.1 0.1 -0.3
v -0.1 0.1 -0.6
v -0.1 0.2 0.6
v -0.1 0.2 0.5
v -0.1 0.2 -0.2
v -0.1 0.2 -0.3
v -0.1 0.2 -0.5
v -0.1 0.2 -0.6
v -0.1 0.3 -0.2
v -0.1 0.3 -0.5
v 0.1 0 0.3
v 0.1 0 5.96046e-008
v 0.1 0.1 0.4
v 0.1 0.1 0.3
v 0.1 0.1 0.2
v 0.1 0.1 5.96046e-008
v 0.1 0.1 -0.1
v 0.1 0.1 -0.2
v 0.1 0.2 0.4
v 0.1 0.2 0.3
v 0.1 0.2 0.2
v 0.1 0.2 0.1
v 0.1 0.2 -0.1
v 0.1 0.2 -0.2
v 0.1 0.3 0.3
v 0.1 0.3 0.1
v 0.2 0 -0.2
v 0.2 0 -0.3
v 0.2 0.1 0.6
v 0.2 0.1 0.4
v 0.2 0.1 0.3
v 0.2 0.1 0.2
v 0.2 0.1 5.96046e-008
v 0.2 0.1 -0.1
v 0.2 0.1 -0.3
v 0.2 0.1 -0.6
v 0.2 0.2 0.6
v 0.2 0.2 0.4
v 0.2 0.2 0.3
v 0.2 0.2 0.2
v 0.2 0.2 5.96046e-008
v 0.2 0.2 -0.1
v 0.2 0.2 -0.3
v 0.2 0.2 -0.5
v 0.2 0.2 -0.6
v 0.2 0.3 -0.2
v 0.2 0.3 -0.5
v 0.3 0.1 0.1
v 0.3 0.1 5.96046e-008
v 0.3 0.2 0.1
v 0.3 0.2 5.96046e-008
v 0.4 0.1 0.2
v 0.4 0.1 0.1
v 0.4 0.2 0.2
v 0.4 0.2 0.1
v -0.2 0.1 0.6
v -0.2 0.2 0.6
v -0.1 0.1 0.6
v -0.1 0.2 0.6
v 0.1 0.1 0.6
v 0.1 0.2 0.6
v 0.2 0.1 0.6
v 0.2 0.2 0.6
v -0.1 0.1 0.5
v -0.1 0.2 0.5
v 0.1 0.1 0.5
v 0.1 0.2 0.5
v -0.2 0.1 0.3
v -0.2 0.2 0.3
v -0.1 0 0.3
v -0.1 0.1 0.3
v -0.1 0.2 0.3
v -0.1 0.3 0.3
v 0.1 0 0.3
v 0.1 0.1 0.3
v 0.1 0.2 0.3
v 0.1 0.3 0.3
v 0.2 0.1 0.3
v 0.2 0.2 0.3
v -0.4 0.1 0.2
v -0.4 0.2 0.2
v -0.2 0.1 0.2
v -0.2 0.2 0.2
v 0.2 0.1 0.2
v 0.2 0.2 0.2
v 0.4 0.1 0.2
v 0.4 0.2 0.2
v -0.2 0 -0.2
v -0.2 0.3 -0.2
v -0.1 0 -0.2
v -0.1 0.1 -0.2
v -0.1 0.2 -0.2
v -0.1 0.3 -0.2
v 0.1 0 -0.2
v 0.1 0.1 -0.2
v 0.1 0.2 -0.2
v 0.1 0.3 -0.2
v 0.2 0 -0.2
v 0.2 0.3 -0.2
v -0.2 0.1 0.4
v -0.2 0.2 0.4
v -0.1 0.1 0.4
v -0.1 0.2 0.4
v 0.1 0.1 0.4
v 0.1 0.2 0.4
v 0.2 0.1 0.4
v 0.2 0.2 0.4
v -0.4 0.1 0.1
v -0.4 0.2 0.1
v -0.3 0.1 0.1
v -0.3 0.2 0.1
v -0.1 0.2 0.1
v -0.1 0.3 0.1
v 0.1 0.2 0.1
v 0.1 0.3 0.1
v 0.3 0.1 0.1
v 0.3 0.2 0.1
v 0.4 0.1 0.1
v 0.4 0.2 0.1
v -0.3 0.1 5.96046e-008
v -0.3 0.2 5.96046e-008
v -0.2 0.1 5.96046e-008
v -0.2 0.2 5.96046e-008
v -0.1 0 5.96046e-008
v -0.1 0.1 5.96046e-008
v 0.1 0 5.96046e-008
v 0.1 0.1 5.96046e-008
v 0.2 0.1 5.96046e-008
v 0.2 0.2 5.96046e-008
v 0.3 0.1 5.96046e-008
v 0.3 0.2 5.96046e-008
v -0.2 0.1 -0.1
v -0.2 0.2 -0.1
v -0.1 0.1 -0.1
v -0.1 0.2 -0.1
v 0.1 0.1 -0.1
v 0.1 0.2 -0.1
v 0.2 0.1 -0.1
v 0.2 0.2 -0.1
v -0.2 0 -0.3
v -0.2 0.1 -0.3
v -0.1 0 -0.3
v -0.1 0.1 -0.3
v -0.1 0.2 -0.3
v 0.1 0 -0.3
v 0.1 0.1 -0.3
v 0.1 0.2 -0.3
v 0.2 0 -0.3
v 0.2 0.1 -0.3
v -0.2 0.2 -0.5
v -0.2 0.3 -0.5
v -0.1 0.2 -0.5
v -0.1 0.3 -0.5
v 0.1 0.2 -0.5
v 0.1 0.3 -0.5
v 0.2 0.2 -0.5
v 0.2 0.3 -0.5
v -0.2 0.1 -0.6
v -0.2 0.2 -0.6
v -0.1 0.1 -0.6
v -0.1 0.2 -0.6
v 0.1 0.1 -0.6
v 0.1 0.2 -0.6
v 0.2 0.1 -0.6
v 0.2 0.2 -0.6
v -0.1 0 0.3
v 0.1 0 0.3
v -0.1 0 5.96046e-008
v 0.1 0 5.96046e-008
v -0.2 0 -0.2
v -0.1 0 -0.2
v 0.1 0 -0.2
v 0.2 0 -0.2
v -0.2 0 -0.3
v -0.1 0 -0.3
v 0.1 0 -0.3
v 0.2 0 -0.3
v -0.2 0.1 0.6
v -0.1 0.1 0.6
v 0.1 0.1 0.6
v 0.2 0.1 0.6
v -0.1 0.1 0.5
v 0.1 0.1 0.5
v -0.2 0.1 0.4
v -0.1 0.1 0.4
v 0.1 0.1 0.4
v 0.2 0.1 0.4
v -0.2 0.1 0.3
v -0.1 0.1 0.3
v 0.1 0.1 0.3
v 0.2 0.1 0.3
v -0.4 0.1 0.2
v -0.2 0.1 0.2
v -0.1 0.1 0.2
v 0.1 0.1 0.2
v 0.2 0.1 0.2
v 0.4 0.1 0.2
v -0.4 0.1 0.1
v -0.3 0.1 0.1
v 0.3 0.1 0.1
v 0.4 0.1 0.1
v -0.3 0.1 5.96046e-008
v -0.2 0.1 5.96046e-008
v -0.1 0.1 5.96046e-008
v 0.1 0.1 5.96046e-008
v 0.2 0.1 5.96046e-008
v 0.3 0.1 5.96046e-008
v -0.2 0.1 -0.1
v -0.1 0.1 -0.1
v 0.1 0.1 -0.1
v 0.2 0.1 -0.1
v -0.1 0.1 -0.2
v 0.1 0.1 -0.2
v -0.2 0.1 -0.3
v -0.1 0.1 -0.3
v 0.1 0.1 -0.3
v 0.2 0.1 -0.3
v -0.2 0.1 -0.6
v -0.1 0.1 -0.6
v 0.1 0.1 -0.6
v 0.2 0.1 -0.6
v -0.2 0.2 0.6
v -0.1 0.2 0.6
v 0.1 0.2 0.6
v 0.2 0.2 0.6
v -0.1 0.2 0.5
v 0.1 0.2 0.5
v -0.2 0.2 0.4
v -0.1 0.2 0.4
v 0.1 0.2 0.4
v 0.2 0.2 0.4
v -0.2 0.2 0.3
v -0.1 0.2 0.3
v 0.1 0.2 0.3
v 0.2 0.2 0.3
v -0.4 0.2 0.2
v -0.2 0.2 0.2
v -0.1 0.2 0.2
v 0.1 0.2 0.2
v 0.2 0.2 0.2
v 0.4 0.2 0.2
v -0.4 0.2 0.1
v -0.3 0.2 0.1
v -0.1 0.2 0.1
v 0.1 0.2 0.1
v 0.3 0.2 0.1
v 0.4 0.2 0.1
v -0.3 0.2 5.96046e-008
v -0.2 0.2 5.96046e-008
v 0.2 0.2 5.96046e-008
v 0.3 0.2 5.96046e-008
v -0.2 0.2 -0.1
v -0.1 0.2 -0.1
v 0.1 0.2 -0.1
v 0.2 0.2 -0.1
v -0.1 0.2 -0.2
v 0.1 0.2 -0.2
v -0.1 0.2 -0.3
v 0.1 0.2 -0.3
v -0.2 0.2 -0.5
v -0.1 0.2 -0.5
v 0.1 0.2 -0.5
v 0.2 0.2 -0.5
v -0.2 0.2 -0.6
v -0.1 0.2 -0.6
v 0.1 0.2 -0.6
v 0.2 0.2 -0.6
v -0.1 0.3 0.3
v 0.1 0.3 0.3
v -0.1 0.3 0.1
v 0.1 0.3 0.1
v -0.2 0.3 -0.2
v -0.1 0.3 -0.2
v 0.1 0.3 -0.2
v 0.2 0.3 -0.2
v -0.2 0.3 -0.5
v -0.1 0.3 -0.5
v 0.1 0.3 -0.5
v 0.2 0.3 -0.5

# faces
f 3/3/1 2/3/1 1/3/1
f 4/3/1 2/3/1 3/3/1
f 7/3/1 6/3/1 5/3/1
f 8/3/1 6/3/1 7/3/1
f 17/1/1 10/1/1 9/1/1
f 19/1/1 12/1/1 11/1/1
f 20/1/1 12/1/1 19/1/1
f 21/4/1 14/4/1 13/4/1
f 22/4/1 14/4/1 21/4/1
f 23/3/1 16/3/1 15/3/1
f 24/3/1 16/3/1 23/3/1
f 25/2/1 18/2/1 17/2/1
f 25/1/1 17/1/1 9/1/1
f 26/2/1 18/2/1 25/2/1
f 27/2/1 18/2/1 26/2/1
f 28/1/1 26/1/1 25/1/1
f 28/1/1 25/1/1 9/1/1
f 29/1/1 26/1/1 28/1/1
f 33/3/1 31/3/1 30/3/1
f 34/3/1 31/3/1 33/3/1
f 35/3/1 31/3/1 34/3/1
f 38/3/1 33/3/1 32/3/1
f 39/3/1 33/3/1 38/3/1
f 42/3/1 37/3/1 36/3/1
f 43/3/1 37/3/1 42/3/1
f 44/4/1 41/4/1 40/4/1
f 44/4/1 40/4/1 39/4/1
f 45/4/1 41/4/1 44/4/1
f 50/1/1 47/1/1 46/1/1
f 51/1/1 47/1/1 50/1/1
f 53/1/1 49/1/1 48/1/1
f 54/1/1 49/1/1 53/1/1
f 56/2/1 52/2/1 51/2/1
f 57/2/1 52/2/1 56/2/1
f 58/2/1 52/2/1 57/2/1
f 59/1/1 56/1/1 55/1/1
f 59/1/1 57/1/1 56/1/1
f 60/1/1 57/1/1 59/1/1
f 61/1/2 62/1/2 65/1/2
f 65/1/2 62/1/2 66/1/2
f 63/1/2 64/1/2 68/1/2
f 68/1/2 64/1/2 69/1/2
f 66/2/2 67/2/2 71/2/2
f 71/2/2 67/2/2 72/2/2
f 72/2/2 67/2/2 73/2/2
f 70/1/2 71/1/2 74/1/2
f 71/1/2 72/1/2 74/1/2
f 74/1/2 72/1/2 75/1/2
f 76/3/2 77/3/2 79/3/2
f 79/3/2 77/3/2 80/3/2
f 80/3/2 77/3/2 81/3/2
f 78/3/2 79/3/2 84/3/2
f 84/3/2 79/3/2 85/3/2
f 82/3/2 83/3/2 88/3/2
f 88/3/2 83/3/2 89/3/2
f 86/4/2 87/4/2 90/4/2
f 85/4/2 86/4/2 90/4/2
f 90/4/2 87/4/2 91/4/2
f 92/1/2 93/1/2 100/1/2
f 94/1/2 95/1/2 102/1/2
f 102/1/2 95/1/2 103/1/2
f 96/4/2 97/4/2 104/4/2
f 104/4/2 97/4/2 105/4/2
f 98/3/2 99/3/2 106/3/2
f 106/3/2 99/3/2 107/3/2
f 100/2/2 101/2/2 108/2/2
f 92/1/2 100/1/2 108/1/2
f 108/2/2 101/2/2 109/2/2
f 109/2/2 101/2/2 110/2/2
f 108/1/2 109/1/2 111/1/2
f 92/1/2 108/1/2 111/1/2
f 111/1/2 109/1/2 112/1/2
f 113/3/2 114/3/2 115/3/2
f 115/3/2 114/3/2 116/3/2
f 117/3/2 118/3/2 119/3/2
f 119/3/2 118/3/2 120/3/2
f 123/1/3 122/1/3 121/1/3
f 124/1/3 122/1/3 123/1/3
f 127/1/3 126/1/3 125/1/3
f 128/1/3 126/1/3 127/1/3
f 131/1/3 130/1/3 129/1/3
f 132/1/3 130/1/3 131/1/3
f 136/4/3 134/4/3 133/4/3
f 137/4/3 134/4/3 136/4/3
f 139/3/3 136/3/3 135/3/3
f 140/3/3 136/3/3 139/3/3
f 141/4/3 138/4/3 137/4/3
f 142/4/3 138/4/3 141/4/3
f 143/4/3 141/4/3 140/4/3
f 144/4/3 141/4/3 143/4/3
f 147/3/3 146/3/3 145/3/3
f 148/3/3 146/3/3 147/3/3
f 151/3/3 150/3/3 149/3/3
f 152/3/3 150/3/3 151/3/3
f 155/1/3 154/1/3 153/1/3
f 156/1/3 154/1/3 155/1/3
f 157/1/3 154/1/3 156/1/3
f 158/1/3 154/1/3 157/1/3
f 163/1/3 160/1/3 159/1/3
f 163/1/3 162/1/3 161/1/3
f 163/1/3 161/1/3 160/1/3
f 164/1/3 162/1/3 163/1/3
f 165/1/4 166/1/4 167/1/4
f 167/1/4 166/1/4 168/1/4
f 169/1/4 170/1/4 171/1/4
f 171/1/4 170/1/4 172/1/4
f 173/3/4 174/3/4 175/3/4
f 175/3/4 174/3/4 176/3/4
f 177/4/4 178/4/4 179/4/4
f 179/4/4 178/4/4 180/4/4
f 181/3/4 182/3/4 183/3/4
f 183/3/4 182/3/4 184/3/4
f 185/3/4 186/3/4 187/3/4
f 187/3/4 186/3/4 188/3/4
f 189/3/4 190/3/4 191/3/4
f 191/3/4 190/3/4 192/3/4
f 193/3/4 194/3/4 195/3/4
f 195/3/4 194/3/4 196/3/4
f 197/3/4 198/3/4 199/3/4
f 199/3/4 198/3/4 200/3/4
f 201/3/4 202/3/4 203/3/4
f 203/3/4 202/3/4 204/3/4
f 205/1/4 206/1/4 207/1/4
f 207/1/4 206/1/4 208/1/4
f 208/1/4 209/1/4 211/1/4
f 211/1/4 209/1/4 212/1/4
f 210/1/4 211/1/4 213/1/4
f 213/1/4 211/1/4 214/1/4
f 215/1/4 216/1/4 217/1/4
f 217/1/4 216/1/4 218/1/4
f 219/1/4 220/1/4 221/1/4
f 221/1/4 220/1/4 222/1/4
f 223/2/4 224/2/4 225/2/4
f 225/2/4 224/2/4 226/2/4
f 227/2/4 228/2/4 229/2/4
f 229/2/4 228/2/4 230/2/4
f 233/3/5 232/3/5 231/3/5
f 234/3/5 232/3/5 233/3/5
f 239/1/5 236/1/5 235/1/5
f 240/1/5 236/1/5 239/1/5
f 241/1/5 238/1/5 237/1/5
f 242/1/5 238/1/5 241/1/5
f 247/1/5 244/1/5 243/1/5
f 248/1/5 246/1/5 245/1/5
f 249/1/5 247/1/5 243/1/5
f 249/1/5 248/1/5 247/1/5
f 250/1/5 248/1/5 249/1/5
f 251/1/5 246/1/5 248/1/5
f 251/1/5 248/1/5 250/1/5
f 252/1/5 246/1/5 251/1/5
f 254/3/5 251/3/5 250/3/5
f 255/3/5 251/3/5 254/3/5
f 258/4/5 254/4/5 253/4/5
f 259/4/5 254/4/5 258/4/5
f 260/4/5 256/4/5 255/4/5
f 261/4/5 256/4/5 260/4/5
f 263/3/5 259/3/5 258/3/5
f 263/3/5 258/3/5 257/3/5
f 264/3/5 259/3/5 263/3/5
f 265/3/5 261/3/5 260/3/5
f 265/3/5 262/3/5 261/3/5
f 266/3/5 262/3/5 265/3/5
f 267/3/5 259/3/5 264/3/5
f 268/3/5 259/3/5 267/3/5
f 269/3/5 259/3/5 268/3/5
f 270/3/5 265/3/5 260/3/5
f 271/3/5 265/3/5 270/3/5
f 272/3/5 265/3/5 271/3/5
f 273/3/5 269/3/5 268/3/5
f 273/3/5 271/3/5 270/3/5
f 273/3/5 270/3/5 269/3/5
f 274/3/5 271/3/5 273/3/5
f 275/3/5 271/3/5 274/3/5
f 276/3/5 271/3/5 275/3/5
f 277/3/5 275/3/5 274/3/5
f 278/3/5 275/3/5 277/3/5
f 280/1/5 278/1/5 277/1/5
f 281/1/5 278/1/5 280/1/5
f 283/2/5 280/2/5 279/2/5
f 284/2/5 280/2/5 283/2/5
f 285/2/5 282/2/5 281/2/5
f 286/2/5 282/2/5 285/2/5
f 287/1/6 288/1/6 291/1/6
f 289/1/6 290/1/6 292/1/6
f 287/1/6 291/1/6 293/1/6
f 291/1/6 292/1/6 293/1/6
f 293/1/6 292/1/6 294/1/6
f 292/1/6 290/1/6 295/1/6
f 294/1/6 292/1/6 295/1/6
f 295/1/6 290/1/6 296/1/6
f 294/3/6 295/3/6 298/3/6
f 298/3/6 295/3/6 299/3/6
f 297/4/6 298/4/6 302/4/6
f 302/4/6 298/4/6 303/4/6
f 299/4/6 300/4/6 304/4/6
f 304/4/6 300/4/6 305/4/6
f 302/3/6 303/3/6 307/3/6
f 301/3/6 302/3/6 307/3/6
f 307/3/6 303/3/6 308/3/6
f 308/3/6 303/3/6 309/3/6
f 304/3/6 305/3/6 310/3/6
f 305/3/6 306/3/6 310/3/6
f 310/3/6 306/3/6 311/3/6
f 311/3/6 306/3/6 312/3/6
f 308/3/6 309/3/6 313/3/6
f 310/3/6 311/3/6 313/3/6
f 309/3/6 310/3/6 313/3/6
f 313/3/6 311/3/6 314/3/6
f 314/3/6 311/3/6 315/3/6
f 315/3/6 311/3/6 316/3/6
f 314/3/6 315/3/6 317/3/6
f 317/3/6 315/3/6 318/3/6
f 318/3/6 315/3/6 319/3/6
f 319/3/6 315/3/6 320/3/6
f 318/3/6 319/3/6 321/3/6
f 321/3/6 319/3/6 322/3/6
f 321/1/6 322/1/6 323/1/6
f 323/1/6 322/1/6 324/1/6
f 325/2/6 326/2/6 329/2/6
f 329/2/6 326/2/6 330/2/6
f 327/2/6 328/2/6 331/2/6
f 331/2/6 328/2/6 332/2/6
f 333/4/6 334/4/6 335/4/6
f 335/4/6 334/4/6 336/4/6
f 337/1/6 338/1/6 341/1/6
f 341/1/6 338/1/6 342/1/6
f 339/1/6 340/1/6 343/1/6
f 343/1/6 340/1/6 344/1/6
