# MagicaVoxel @ Ephtracy

# group
o 

# material
mtllib shieldItem.mtl
usemtl palette

# normals
vn -1 0 0
vn 1 0 0
vn 0 0 1
vn 0 0 -1
vn 0 -1 0
vn 0 1 0

# texcoords
vt 0.0878906 0.5
vt 0.0957031 0.5
vt 0.306641 0.5

# verts
v -0.6 0 0.6
v -0.6 0 -0.6
v -0.6 0.1 0.7
v -0.6 0.1 0.6
v -0.6 0.1 0.5
v -0.6 0.1 -0.5
v -0.6 0.1 -0.6
v -0.6 0.1 -0.7
v -0.6 0.2 0.6
v -0.6 0.2 0.5
v -0.6 0.2 -0.5
v -0.6 0.2 -0.6
v -0.6 1.2 0.6
v -0.6 1.2 0.5
v -0.6 1.2 -0.5
v -0.6 1.2 -0.6
v -0.6 1.3 0.7
v -0.6 1.3 0.6
v -0.6 1.3 0.5
v -0.6 1.3 -0.5
v -0.6 1.3 -0.6
v -0.6 1.3 -0.7
v -0.6 1.4 0.6
v -0.6 1.4 -0.6
v -0.4 0.1 0.6
v -0.4 0.1 0.5
v -0.4 0.1 -0.5
v -0.4 0.1 -0.6
v -0.4 0.2 0.6
v -0.4 0.2 0.5
v -0.4 0.2 -0.5
v -0.4 0.2 -0.6
v -0.4 1.2 0.6
v -0.4 1.2 0.5
v -0.4 1.2 -0.5
v -0.4 1.2 -0.6
v -0.4 1.3 0.6
v -0.4 1.3 0.5
v -0.4 1.3 -0.5
v -0.4 1.3 -0.6
v -0.3 0.5 0.7
v -0.3 0.5 0.6
v -0.3 0.5 0.5
v -0.3 0.5 -0.5
v -0.3 0.5 -0.6
v -0.3 0.5 -0.7
v -0.3 1.1 0.7
v -0.3 1.1 0.6
v -0.3 1.1 0.5
v -0.3 1.1 -0.5
v -0.3 1.1 -0.6
v -0.3 1.1 -0.7
v -0.2 0.4 0.7
v -0.2 0.4 0.6
v -0.2 0.4 0.5
v -0.2 0.4 -0.5
v -0.2 0.4 -0.6
v -0.2 0.4 -0.7
v -0.2 0.5 0.7
v -0.2 0.5 0.6
v -0.2 0.5 0.5
v -0.2 0.5 -0.5
v -0.2 0.5 -0.6
v -0.2 0.5 -0.7
v -0.1 0.3 0.7
v -0.1 0.3 0.6
v -0.1 0.3 0.5
v -0.1 0.3 -0.5
v -0.1 0.3 -0.6
v -0.1 0.3 -0.7
v -0.1 0.4 0.7
v -0.1 0.4 0.6
v -0.1 0.4 0.5
v -0.1 0.4 -0.5
v -0.1 0.4 -0.6
v -0.1 0.4 -0.7
v 0.4 0.1 0.5
v 0.4 0.1 -0.5
v 0.4 0.2 0.5
v 0.4 0.2 -0.5
v 0.4 1.2 0.5
v 0.4 1.2 -0.5
v 0.4 1.3 0.5
v 0.4 1.3 -0.5
v 0.5 0 0.6
v 0.5 0 -0.6
v 0.5 0.1 0.7
v 0.5 0.1 0.6
v 0.5 0.1 0.5
v 0.5 0.1 -0.5
v 0.5 0.1 -0.6
v 0.5 0.1 -0.7
v 0.5 0.2 0.6
v 0.5 0.2 -0.6
v 0.5 1.2 0.6
v 0.5 1.2 -0.6
v 0.5 1.3 0.7
v 0.5 1.3 0.6
v 0.5 1.3 0.5
v 0.5 1.3 -0.5
v 0.5 1.3 -0.6
v 0.5 1.3 -0.7
v 0.5 1.4 0.6
v 0.5 1.4 -0.6
v -0.5 0 0.6
v -0.5 0 -0.6
v -0.5 0.1 0.7
v -0.5 0.1 0.6
v -0.5 0.1 0.5
v -0.5 0.1 -0.5
v -0.5 0.1 -0.6
v -0.5 0.1 -0.7
v -0.5 0.2 0.6
v -0.5 0.2 -0.6
v -0.5 1.2 0.6
v -0.5 1.2 -0.6
v -0.5 1.3 0.7
v -0.5 1.3 0.6
v -0.5 1.3 0.5
v -0.5 1.3 -0.5
v -0.5 1.3 -0.6
v -0.5 1.3 -0.7
v -0.5 1.4 0.6
v -0.5 1.4 -0.6
v -0.4 0.1 0.5
v -0.4 0.1 -0.5
v -0.4 0.2 0.5
v -0.4 0.2 -0.5
v -0.4 1.2 0.5
v -0.4 1.2 -0.5
v -0.4 1.3 0.5
v -0.4 1.3 -0.5
v 0.1 0.3 0.7
v 0.1 0.3 0.6
v 0.1 0.3 0.5
v 0.1 0.3 -0.5
v 0.1 0.3 -0.6
v 0.1 0.3 -0.7
v 0.1 0.4 0.7
v 0.1 0.4 0.6
v 0.1 0.4 0.5
v 0.1 0.4 -0.5
v 0.1 0.4 -0.6
v 0.1 0.4 -0.7
v 0.2 0.4 0.7
v 0.2 0.4 0.6
v 0.2 0.4 0.5
v 0.2 0.4 -0.5
v 0.2 0.4 -0.6
v 0.2 0.4 -0.7
v 0.2 0.5 0.7
v 0.2 0.5 0.6
v 0.2 0.5 0.5
v 0.2 0.5 -0.5
v 0.2 0.5 -0.6
v 0.2 0.5 -0.7
v 0.3 0.5 0.7
v 0.3 0.5 0.6
v 0.3 0.5 0.5
v 0.3 0.5 -0.5
v 0.3 0.5 -0.6
v 0.3 0.5 -0.7
v 0.3 1.1 0.7
v 0.3 1.1 0.6
v 0.3 1.1 0.5
v 0.3 1.1 -0.5
v 0.3 1.1 -0.6
v 0.3 1.1 -0.7
v 0.4 0.1 0.6
v 0.4 0.1 0.5
v 0.4 0.1 -0.5
v 0.4 0.1 -0.6
v 0.4 0.2 0.6
v 0.4 0.2 0.5
v 0.4 0.2 -0.5
v 0.4 0.2 -0.6
v 0.4 1.2 0.6
v 0.4 1.2 0.5
v 0.4 1.2 -0.5
v 0.4 1.2 -0.6
v 0.4 1.3 0.6
v 0.4 1.3 0.5
v 0.4 1.3 -0.5
v 0.4 1.3 -0.6
v 0.6 0 0.6
v 0.6 0 -0.6
v 0.6 0.1 0.7
v 0.6 0.1 0.6
v 0.6 0.1 0.5
v 0.6 0.1 -0.5
v 0.6 0.1 -0.6
v 0.6 0.1 -0.7
v 0.6 0.2 0.6
v 0.6 0.2 0.5
v 0.6 0.2 -0.5
v 0.6 0.2 -0.6
v 0.6 1.2 0.6
v 0.6 1.2 0.5
v 0.6 1.2 -0.5
v 0.6 1.2 -0.6
v 0.6 1.3 0.7
v 0.6 1.3 0.6
v 0.6 1.3 0.5
v 0.6 1.3 -0.5
v 0.6 1.3 -0.6
v 0.6 1.3 -0.7
v 0.6 1.4 0.6
v 0.6 1.4 -0.6
v -0.6 0.1 0.7
v -0.6 1.3 0.7
v -0.5 0.1 0.7
v -0.5 1.3 0.7
v -0.3 0.5 0.7
v -0.3 1.1 0.7
v -0.2 0.4 0.7
v -0.2 0.5 0.7
v -0.1 0.3 0.7
v -0.1 0.4 0.7
v -0.1 0.7 0.7
v -0.1 0.9 0.7
v 0.1 0.3 0.7
v 0.1 0.4 0.7
v 0.1 0.7 0.7
v 0.1 0.9 0.7
v 0.2 0.4 0.7
v 0.2 0.5 0.7
v 0.3 0.5 0.7
v 0.3 1.1 0.7
v 0.5 0.1 0.7
v 0.5 1.3 0.7
v 0.6 0.1 0.7
v 0.6 1.3 0.7
v -0.6 0 0.6
v -0.6 0.1 0.6
v -0.6 1.3 0.6
v -0.6 1.4 0.6
v -0.5 0 0.6
v -0.5 0.1 0.6
v -0.5 0.2 0.6
v -0.5 1.2 0.6
v -0.5 1.3 0.6
v -0.5 1.4 0.6
v -0.4 0.1 0.6
v -0.4 0.2 0.6
v -0.4 1.2 0.6
v -0.4 1.3 0.6
v -0.3 0.5 0.6
v -0.3 1.1 0.6
v -0.2 0.4 0.6
v -0.2 0.5 0.6
v -0.1 0.3 0.6
v -0.1 0.4 0.6
v 0.1 0.3 0.6
v 0.1 0.4 0.6
v 0.2 0.4 0.6
v 0.2 0.5 0.6
v 0.3 0.5 0.6
v 0.3 1.1 0.6
v 0.4 0.1 0.6
v 0.4 0.2 0.6
v 0.4 1.2 0.6
v 0.4 1.3 0.6
v 0.5 0 0.6
v 0.5 0.1 0.6
v 0.5 0.2 0.6
v 0.5 1.2 0.6
v 0.5 1.3 0.6
v 0.5 1.4 0.6
v 0.6 0 0.6
v 0.6 0.1 0.6
v 0.6 1.3 0.6
v 0.6 1.4 0.6
v -0.6 0.1 0.5
v -0.6 0.2 0.5
v -0.6 1.2 0.5
v -0.6 1.3 0.5
v -0.5 0.1 0.5
v -0.5 1.3 0.5
v -0.4 0.1 0.5
v -0.4 0.2 0.5
v -0.4 1.2 0.5
v -0.4 1.3 0.5
v 0.4 0.1 0.5
v 0.4 0.2 0.5
v 0.4 1.2 0.5
v 0.4 1.3 0.5
v 0.5 0.1 0.5
v 0.5 1.3 0.5
v 0.6 0.1 0.5
v 0.6 0.2 0.5
v 0.6 1.2 0.5
v 0.6 1.3 0.5
v -0.6 0.2 -0.5
v -0.6 1.2 -0.5
v -0.4 0.1 -0.5
v -0.4 0.2 -0.5
v -0.4 1.2 -0.5
v -0.4 1.3 -0.5
v -0.3 0.5 -0.5
v -0.3 1.1 -0.5
v -0.2 0.4 -0.5
v -0.2 0.5 -0.5
v -0.1 0.3 -0.5
v -0.1 0.4 -0.5
v 0.1 0.3 -0.5
v 0.1 0.4 -0.5
v 0.2 0.4 -0.5
v 0.2 0.5 -0.5
v 0.3 0.5 -0.5
v 0.3 1.1 -0.5
v 0.4 0.1 -0.5
v 0.4 0.2 -0.5
v 0.4 1.2 -0.5
v 0.4 1.3 -0.5
v 0.6 0.2 -0.5
v 0.6 1.2 -0.5
v -0.6 0.1 -0.6
v -0.6 0.2 -0.6
v -0.6 1.2 -0.6
v -0.6 1.3 -0.6
v -0.5 0.1 -0.6
v -0.5 0.2 -0.6
v -0.5 1.2 -0.6
v -0.5 1.3 -0.6
v 0.5 0.1 -0.6
v 0.5 0.2 -0.6
v 0.5 1.2 -0.6
v 0.5 1.3 -0.6
v 0.6 0.1 -0.6
v 0.6 0.2 -0.6
v 0.6 1.2 -0.6
v 0.6 1.3 -0.6
v -0.6 0.1 0.6
v -0.6 0.2 0.6
v -0.6 1.2 0.6
v -0.6 1.3 0.6
v -0.5 0.1 0.6
v -0.5 0.2 0.6
v -0.5 1.2 0.6
v -0.5 1.3 0.6
v 0.5 0.1 0.6
v 0.5 0.2 0.6
v 0.5 1.2 0.6
v 0.5 1.3 0.6
v 0.6 0.1 0.6
v 0.6 0.2 0.6
v 0.6 1.2 0.6
v 0.6 1.3 0.6
v -0.6 0.2 0.5
v -0.6 1.2 0.5
v -0.4 0.1 0.5
v -0.4 0.2 0.5
v -0.4 1.2 0.5
v -0.4 1.3 0.5
v -0.3 0.5 0.5
v -0.3 1.1 0.5
v -0.2 0.4 0.5
v -0.2 0.5 0.5
v -0.1 0.3 0.5
v -0.1 0.4 0.5
v 0.1 0.3 0.5
v 0.1 0.4 0.5
v 0.2 0.4 0.5
v 0.2 0.5 0.5
v 0.3 0.5 0.5
v 0.3 1.1 0.5
v 0.4 0.1 0.5
v 0.4 0.2 0.5
v 0.4 1.2 0.5
v 0.4 1.3 0.5
v 0.6 0.2 0.5
v 0.6 1.2 0.5
v -0.6 0.1 -0.5
v -0.6 0.2 -0.5
v -0.6 1.2 -0.5
v -0.6 1.3 -0.5
v -0.5 0.1 -0.5
v -0.5 1.3 -0.5
v -0.4 0.1 -0.5
v -0.4 0.2 -0.5
v -0.4 1.2 -0.5
v -0.4 1.3 -0.5
v 0.4 0.1 -0.5
v 0.4 0.2 -0.5
v 0.4 1.2 -0.5
v 0.4 1.3 -0.5
v 0.5 0.1 -0.5
v 0.5 1.3 -0.5
v 0.6 0.1 -0.5
v 0.6 0.2 -0.5
v 0.6 1.2 -0.5
v 0.6 1.3 -0.5
v -0.6 0 -0.6
v -0.6 0.1 -0.6
v -0.6 1.3 -0.6
v -0.6 1.4 -0.6
v -0.5 0 -0.6
v -0.5 0.1 -0.6
v -0.5 0.2 -0.6
v -0.5 1.2 -0.6
v -0.5 1.3 -0.6
v -0.5 1.4 -0.6
v -0.4 0.1 -0.6
v -0.4 0.2 -0.6
v -0.4 1.2 -0.6
v -0.4 1.3 -0.6
v -0.3 0.5 -0.6
v -0.3 1.1 -0.6
v -0.2 0.4 -0.6
v -0.2 0.5 -0.6
v -0.1 0.3 -0.6
v -0.1 0.4 -0.6
v 0.1 0.3 -0.6
v 0.1 0.4 -0.6
v 0.2 0.4 -0.6
v 0.2 0.5 -0.6
v 0.3 0.5 -0.6
v 0.3 1.1 -0.6
v 0.4 0.1 -0.6
v 0.4 0.2 -0.6
v 0.4 1.2 -0.6
v 0.4 1.3 -0.6
v 0.5 0 -0.6
v 0.5 0.1 -0.6
v 0.5 0.2 -0.6
v 0.5 1.2 -0.6
v 0.5 1.3 -0.6
v 0.5 1.4 -0.6
v 0.6 0 -0.6
v 0.6 0.1 -0.6
v 0.6 1.3 -0.6
v 0.6 1.4 -0.6
v -0.6 0.1 -0.7
v -0.6 1.3 -0.7
v -0.5 0.1 -0.7
v -0.5 1.3 -0.7
v -0.3 0.5 -0.7
v -0.3 1.1 -0.7
v -0.2 0.4 -0.7
v -0.2 0.5 -0.7
v -0.1 0.3 -0.7
v -0.1 0.4 -0.7
v -0.1 0.7 -0.7
v -0.1 0.9 -0.7
v 0.1 0.3 -0.7
v 0.1 0.4 -0.7
v 0.1 0.7 -0.7
v 0.1 0.9 -0.7
v 0.2 0.4 -0.7
v 0.2 0.5 -0.7
v 0.3 0.5 -0.7
v 0.3 1.1 -0.7
v 0.5 0.1 -0.7
v 0.5 1.3 -0.7
v 0.6 0.1 -0.7
v 0.6 1.3 -0.7
v -0.6 0 0.6
v -0.5 0 0.6
v 0.5 0 0.6
v 0.6 0 0.6
v -0.6 0 -0.6
v -0.5 0 -0.6
v 0.5 0 -0.6
v 0.6 0 -0.6
v -0.6 0.1 0.7
v -0.5 0.1 0.7
v 0.5 0.1 0.7
v 0.6 0.1 0.7
v -0.6 0.1 0.6
v -0.5 0.1 0.6
v -0.4 0.1 0.6
v 0.4 0.1 0.6
v 0.5 0.1 0.6
v 0.6 0.1 0.6
v -0.5 0.1 0.5
v -0.4 0.1 0.5
v 0.4 0.1 0.5
v 0.5 0.1 0.5
v -0.5 0.1 -0.5
v -0.4 0.1 -0.5
v 0.4 0.1 -0.5
v 0.5 0.1 -0.5
v -0.6 0.1 -0.6
v -0.5 0.1 -0.6
v -0.4 0.1 -0.6
v 0.4 0.1 -0.6
v 0.5 0.1 -0.6
v 0.6 0.1 -0.6
v -0.6 0.1 -0.7
v -0.5 0.1 -0.7
v 0.5 0.1 -0.7
v 0.6 0.1 -0.7
v -0.6 0.2 0.6
v -0.5 0.2 0.6
v -0.4 0.2 0.6
v 0.4 0.2 0.6
v 0.5 0.2 0.6
v 0.6 0.2 0.6
v -0.6 0.2 0.5
v -0.4 0.2 0.5
v 0.4 0.2 0.5
v 0.6 0.2 0.5
v -0.6 0.2 -0.5
v -0.4 0.2 -0.5
v 0.4 0.2 -0.5
v 0.6 0.2 -0.5
v -0.6 0.2 -0.6
v -0.5 0.2 -0.6
v -0.4 0.2 -0.6
v 0.4 0.2 -0.6
v 0.5 0.2 -0.6
v 0.6 0.2 -0.6
v -0.1 0.3 0.7
v 0.1 0.3 0.7
v -0.1 0.3 0.6
v 0.1 0.3 0.6
v -0.1 0.3 0.5
v 0.1 0.3 0.5
v -0.1 0.3 -0.5
v 0.1 0.3 -0.5
v -0.1 0.3 -0.6
v 0.1 0.3 -0.6
v -0.1 0.3 -0.7
v 0.1 0.3 -0.7
v -0.2 0.4 0.7
v -0.1 0.4 0.7
v 0.1 0.4 0.7
v 0.2 0.4 0.7
v -0.2 0.4 0.6
v -0.1 0.4 0.6
v 0.1 0.4 0.6
v 0.2 0.4 0.6
v -0.2 0.4 0.5
v -0.1 0.4 0.5
v 0.1 0.4 0.5
v 0.2 0.4 0.5
v -0.2 0.4 -0.5
v -0.1 0.4 -0.5
v 0.1 0.4 -0.5
v 0.2 0.4 -0.5
v -0.2 0.4 -0.6
v -0.1 0.4 -0.6
v 0.1 0.4 -0.6
v 0.2 0.4 -0.6
v -0.2 0.4 -0.7
v -0.1 0.4 -0.7
v 0.1 0.4 -0.7
v 0.2 0.4 -0.7
v -0.3 0.5 0.7
v -0.2 0.5 0.7
v 0.2 0.5 0.7
v 0.3 0.5 0.7
v -0.3 0.5 0.6
v -0.2 0.5 0.6
v 0.2 0.5 0.6
v 0.3 0.5 0.6
v -0.3 0.5 0.5
v -0.2 0.5 0.5
v 0.2 0.5 0.5
v 0.3 0.5 0.5
v -0.3 0.5 -0.5
v -0.2 0.5 -0.5
v 0.2 0.5 -0.5
v 0.3 0.5 -0.5
v -0.3 0.5 -0.6
v -0.2 0.5 -0.6
v 0.2 0.5 -0.6
v 0.3 0.5 -0.6
v -0.3 0.5 -0.7
v -0.2 0.5 -0.7
v 0.2 0.5 -0.7
v 0.3 0.5 -0.7
v -0.6 1.2 0.5
v -0.4 1.2 0.5
v 0.4 1.2 0.5
v 0.6 1.2 0.5
v -0.6 1.2 -0.5
v -0.4 1.2 -0.5
v 0.4 1.2 -0.5
v 0.6 1.2 -0.5
v -0.6 1.3 0.6
v -0.5 1.3 0.6
v 0.5 1.3 0.6
v 0.6 1.3 0.6
v -0.6 1.3 0.5
v -0.5 1.3 0.5
v 0.5 1.3 0.5
v 0.6 1.3 0.5
v -0.6 1.3 -0.5
v -0.5 1.3 -0.5
v 0.5 1.3 -0.5
v 0.6 1.3 -0.5
v -0.6 1.3 -0.6
v -0.5 1.3 -0.6
v 0.5 1.3 -0.6
v 0.6 1.3 -0.6
v -0.6 0.1 0.6
v -0.5 0.1 0.6
v 0.5 0.1 0.6
v 0.6 0.1 0.6
v -0.6 0.1 0.5
v -0.5 0.1 0.5
v 0.5 0.1 0.5
v 0.6 0.1 0.5
v -0.6 0.1 -0.5
v -0.5 0.1 -0.5
v 0.5 0.1 -0.5
v 0.6 0.1 -0.5
v -0.6 0.1 -0.6
v -0.5 0.1 -0.6
v 0.5 0.1 -0.6
v 0.6 0.1 -0.6
v -0.6 0.2 0.5
v -0.4 0.2 0.5
v 0.4 0.2 0.5
v 0.6 0.2 0.5
v -0.6 0.2 -0.5
v -0.4 0.2 -0.5
v 0.4 0.2 -0.5
v 0.6 0.2 -0.5
v -0.3 1.1 0.7
v 0.3 1.1 0.7
v -0.3 1.1 0.6
v 0.3 1.1 0.6
v -0.3 1.1 0.5
v 0.3 1.1 0.5
v -0.3 1.1 -0.5
v 0.3 1.1 -0.5
v -0.3 1.1 -0.6
v 0.3 1.1 -0.6
v -0.3 1.1 -0.7
v 0.3 1.1 -0.7
v -0.6 1.2 0.6
v -0.5 1.2 0.6
v -0.4 1.2 0.6
v 0.4 1.2 0.6
v 0.5 1.2 0.6
v 0.6 1.2 0.6
v -0.6 1.2 0.5
v -0.4 1.2 0.5
v 0.4 1.2 0.5
v 0.6 1.2 0.5
v -0.6 1.2 -0.5
v -0.4 1.2 -0.5
v 0.4 1.2 -0.5
v 0.6 1.2 -0.5
v -0.6 1.2 -0.6
v -0.5 1.2 -0.6
v -0.4 1.2 -0.6
v 0.4 1.2 -0.6
v 0.5 1.2 -0.6
v 0.6 1.2 -0.6
v -0.6 1.3 0.7
v -0.5 1.3 0.7
v 0.5 1.3 0.7
v 0.6 1.3 0.7
v -0.6 1.3 0.6
v -0.5 1.3 0.6
v -0.4 1.3 0.6
v 0.4 1.3 0.6
v 0.5 1.3 0.6
v 0.6 1.3 0.6
v -0.5 1.3 0.5
v -0.4 1.3 0.5
v 0.4 1.3 0.5
v 0.5 1.3 0.5
v -0.5 1.3 -0.5
v -0.4 1.3 -0.5
v 0.4 1.3 -0.5
v 0.5 1.3 -0.5
v -0.6 1.3 -0.6
v -0.5 1.3 -0.6
v -0.4 1.3 -0.6
v 0.4 1.3 -0.6
v 0.5 1.3 -0.6
v 0.6 1.3 -0.6
v -0.6 1.3 -0.7
v -0.5 1.3 -0.7
v 0.5 1.3 -0.7
v 0.6 1.3 -0.7
v -0.6 1.4 0.6
v -0.5 1.4 0.6
v 0.5 1.4 0.6
v 0.6 1.4 0.6
v -0.6 1.4 -0.6
v -0.5 1.4 -0.6
v 0.5 1.4 -0.6
v 0.6 1.4 -0.6

# faces
f 4/2/1 2/2/1 1/2/1
f 5/2/1 2/2/1 4/2/1
f 6/2/1 2/2/1 5/2/1
f 7/2/1 2/2/1 6/2/1
f 9/2/1 4/2/1 3/2/1
f 10/1/1 6/1/1 5/1/1
f 11/1/1 6/1/1 10/1/1
f 12/2/1 8/2/1 7/2/1
f 13/2/1 9/2/1 3/2/1
f 13/1/1 10/1/1 9/1/1
f 14/1/1 10/1/1 13/1/1
f 15/1/1 12/1/1 11/1/1
f 16/2/1 8/2/1 12/2/1
f 16/1/1 12/1/1 15/1/1
f 17/2/1 13/2/1 3/2/1
f 18/2/1 13/2/1 17/2/1
f 19/1/1 15/1/1 14/1/1
f 20/1/1 15/1/1 19/1/1
f 21/2/1 8/2/1 16/2/1
f 22/2/1 8/2/1 21/2/1
f 23/2/1 20/2/1 19/2/1
f 23/2/1 21/2/1 20/2/1
f 23/2/1 19/2/1 18/2/1
f 24/2/1 21/2/1 23/2/1
f 29/1/1 26/1/1 25/1/1
f 30/1/1 26/1/1 29/1/1
f 31/1/1 28/1/1 27/1/1
f 32/1/1 28/1/1 31/1/1
f 37/1/1 34/1/1 33/1/1
f 38/1/1 34/1/1 37/1/1
f 39/1/1 36/1/1 35/1/1
f 40/1/1 36/1/1 39/1/1
f 47/2/1 42/2/1 41/2/1
f 48/2/1 42/2/1 47/2/1
f 49/2/1 44/2/1 43/2/1
f 50/2/1 44/2/1 49/2/1
f 51/2/1 46/2/1 45/2/1
f 52/2/1 46/2/1 51/2/1
f 59/2/1 54/2/1 53/2/1
f 60/2/1 54/2/1 59/2/1
f 61/2/1 56/2/1 55/2/1
f 62/2/1 56/2/1 61/2/1
f 63/2/1 58/2/1 57/2/1
f 64/2/1 58/2/1 63/2/1
f 71/2/1 66/2/1 65/2/1
f 72/2/1 66/2/1 71/2/1
f 73/2/1 68/2/1 67/2/1
f 74/2/1 68/2/1 73/2/1
f 75/2/1 70/2/1 69/2/1
f 76/2/1 70/2/1 75/2/1
f 79/1/1 78/1/1 77/1/1
f 80/1/1 78/1/1 79/1/1
f 83/1/1 82/1/1 81/1/1
f 84/1/1 82/1/1 83/1/1
f 88/2/1 86/2/1 85/2/1
f 89/2/1 86/2/1 88/2/1
f 90/2/1 86/2/1 89/2/1
f 91/2/1 86/2/1 90/2/1
f 93/2/1 88/2/1 87/2/1
f 94/2/1 92/2/1 91/2/1
f 95/2/1 93/2/1 87/2/1
f 96/2/1 92/2/1 94/2/1
f 97/2/1 95/2/1 87/2/1
f 98/2/1 95/2/1 97/2/1
f 101/2/1 92/2/1 96/2/1
f 102/2/1 92/2/1 101/2/1
f 103/2/1 100/2/1 99/2/1
f 103/2/1 101/2/1 100/2/1
f 103/2/1 99/2/1 98/2/1
f 104/2/1 101/2/1 103/2/1
f 105/2/2 106/2/2 108/2/2
f 108/2/2 106/2/2 109/2/2
f 109/2/2 106/2/2 110/2/2
f 110/2/2 106/2/2 111/2/2
f 107/2/2 108/2/2 113/2/2
f 111/2/2 112/2/2 114/2/2
f 107/2/2 113/2/2 115/2/2
f 114/2/2 112/2/2 116/2/2
f 107/2/2 115/2/2 117/2/2
f 117/2/2 115/2/2 118/2/2
f 116/2/2 112/2/2 121/2/2
f 121/2/2 112/2/2 122/2/2
f 119/2/2 120/2/2 123/2/2
f 120/2/2 121/2/2 123/2/2
f 118/2/2 119/2/2 123/2/2
f 123/2/2 121/2/2 124/2/2
f 125/1/2 126/1/2 127/1/2
f 127/1/2 126/1/2 128/1/2
f 129/1/2 130/1/2 131/1/2
f 131/1/2 130/1/2 132/1/2
f 133/2/2 134/2/2 139/2/2
f 139/2/2 134/2/2 140/2/2
f 135/2/2 136/2/2 141/2/2
f 141/2/2 136/2/2 142/2/2
f 137/2/2 138/2/2 143/2/2
f 143/2/2 138/2/2 144/2/2
f 145/2/2 146/2/2 151/2/2
f 151/2/2 146/2/2 152/2/2
f 147/2/2 148/2/2 153/2/2
f 153/2/2 148/2/2 154/2/2
f 149/2/2 150/2/2 155/2/2
f 155/2/2 150/2/2 156/2/2
f 157/2/2 158/2/2 163/2/2
f 163/2/2 158/2/2 164/2/2
f 159/2/2 160/2/2 165/2/2
f 165/2/2 160/2/2 166/2/2
f 161/2/2 162/2/2 167/2/2
f 167/2/2 162/2/2 168/2/2
f 169/1/2 170/1/2 173/1/2
f 173/1/2 170/1/2 174/1/2
f 171/1/2 172/1/2 175/1/2
f 175/1/2 172/1/2 176/1/2
f 177/1/2 178/1/2 181/1/2
f 181/1/2 178/1/2 182/1/2
f 179/1/2 180/1/2 183/1/2
f 183/1/2 180/1/2 184/1/2
f 185/2/2 186/2/2 188/2/2
f 188/2/2 186/2/2 189/2/2
f 189/2/2 186/2/2 190/2/2
f 190/2/2 186/2/2 191/2/2
f 187/2/2 188/2/2 193/2/2
f 189/1/2 190/1/2 194/1/2
f 194/1/2 190/1/2 195/1/2
f 191/2/2 192/2/2 196/2/2
f 187/2/2 193/2/2 197/2/2
f 193/1/2 194/1/2 197/1/2
f 197/1/2 194/1/2 198/1/2
f 195/1/2 196/1/2 199/1/2
f 196/2/2 192/2/2 200/2/2
f 199/1/2 196/1/2 200/1/2
f 187/2/2 197/2/2 201/2/2
f 201/2/2 197/2/2 202/2/2
f 198/1/2 199/1/2 203/1/2
f 203/1/2 199/1/2 204/1/2
f 200/2/2 192/2/2 205/2/2
f 205/2/2 192/2/2 206/2/2
f 203/2/2 204/2/2 207/2/2
f 204/2/2 205/2/2 207/2/2
f 202/2/2 203/2/2 207/2/2
f 207/2/2 205/2/2 208/2/2
f 211/2/3 210/2/3 209/2/3
f 212/2/3 210/2/3 211/2/3
f 216/2/3 214/2/3 213/2/3
f 218/2/3 216/2/3 215/2/3
f 219/2/3 214/2/3 216/2/3
f 219/2/3 216/2/3 218/2/3
f 220/2/3 214/2/3 219/2/3
f 221/2/3 218/2/3 217/2/3
f 221/2/3 219/2/3 218/2/3
f 222/2/3 219/2/3 221/2/3
f 223/1/3 220/1/3 219/1/3
f 223/2/3 219/2/3 222/2/3
f 224/2/3 214/2/3 220/2/3
f 224/1/3 220/1/3 223/1/3
f 225/2/3 223/2/3 222/2/3
f 225/2/3 224/2/3 223/2/3
f 226/2/3 224/2/3 225/2/3
f 227/2/3 224/2/3 226/2/3
f 228/2/3 214/2/3 224/2/3
f 228/2/3 224/2/3 227/2/3
f 231/2/3 230/2/3 229/2/3
f 232/2/3 230/2/3 231/2/3
f 237/2/3 234/2/3 233/2/3
f 238/2/3 234/2/3 237/2/3
f 241/2/3 236/2/3 235/2/3
f 242/2/3 236/2/3 241/2/3
f 244/1/3 240/1/3 239/1/3
f 245/1/3 240/1/3 244/1/3
f 247/1/3 244/1/3 243/1/3
f 247/1/3 246/1/3 245/1/3
f 247/1/3 245/1/3 244/1/3
f 248/1/3 246/1/3 247/1/3
f 249/1/3 247/1/3 243/1/3
f 250/1/3 247/1/3 249/1/3
f 251/1/3 249/1/3 243/1/3
f 252/1/3 249/1/3 251/1/3
f 253/1/3 251/1/3 243/1/3
f 255/1/3 254/1/3 253/1/3
f 257/1/3 256/1/3 255/1/3
f 258/1/3 246/1/3 248/1/3
f 259/1/3 257/1/3 255/1/3
f 259/1/3 258/1/3 257/1/3
f 259/1/3 253/1/3 243/1/3
f 259/1/3 255/1/3 253/1/3
f 260/1/3 258/1/3 259/1/3
f 261/1/3 246/1/3 258/1/3
f 261/1/3 258/1/3 260/1/3
f 262/1/3 246/1/3 261/1/3
f 265/1/3 261/1/3 260/1/3
f 266/1/3 261/1/3 265/1/3
f 269/2/3 264/2/3 263/2/3
f 270/2/3 264/2/3 269/2/3
f 271/2/3 268/2/3 267/2/3
f 272/2/3 268/2/3 271/2/3
f 277/1/3 274/1/3 273/1/3
f 278/1/3 276/1/3 275/1/3
f 279/1/3 274/1/3 277/1/3
f 280/1/3 274/1/3 279/1/3
f 281/1/3 278/1/3 275/1/3
f 282/1/3 278/1/3 281/1/3
f 287/1/3 284/1/3 283/1/3
f 288/1/3 286/1/3 285/1/3
f 289/1/3 284/1/3 287/1/3
f 290/1/3 284/1/3 289/1/3
f 291/1/3 288/1/3 285/1/3
f 292/1/3 288/1/3 291/1/3
f 296/1/3 294/1/3 293/1/3
f 297/1/3 294/1/3 296/1/3
f 299/1/3 296/1/3 295/1/3
f 299/1/3 298/1/3 297/1/3
f 299/1/3 297/1/3 296/1/3
f 300/1/3 298/1/3 299/1/3
f 301/1/3 299/1/3 295/1/3
f 302/1/3 299/1/3 301/1/3
f 303/1/3 301/1/3 295/1/3
f 304/1/3 301/1/3 303/1/3
f 305/1/3 303/1/3 295/1/3
f 307/1/3 306/1/3 305/1/3
f 309/1/3 308/1/3 307/1/3
f 310/1/3 298/1/3 300/1/3
f 311/1/3 309/1/3 307/1/3
f 311/1/3 310/1/3 309/1/3
f 311/1/3 305/1/3 295/1/3
f 311/1/3 307/1/3 305/1/3
f 312/1/3 310/1/3 311/1/3
f 313/1/3 298/1/3 310/1/3
f 313/1/3 310/1/3 312/1/3
f 314/1/3 298/1/3 313/1/3
f 315/1/3 313/1/3 312/1/3
f 316/1/3 313/1/3 315/1/3
f 321/2/3 318/2/3 317/2/3
f 322/2/3 318/2/3 321/2/3
f 323/2/3 320/2/3 319/2/3
f 324/2/3 320/2/3 323/2/3
f 329/2/3 326/2/3 325/2/3
f 330/2/3 326/2/3 329/2/3
f 331/2/3 328/2/3 327/2/3
f 332/2/3 328/2/3 331/2/3
f 333/2/4 334/2/4 337/2/4
f 337/2/4 334/2/4 338/2/4
f 335/2/4 336/2/4 339/2/4
f 339/2/4 336/2/4 340/2/4
f 341/2/4 342/2/4 345/2/4
f 345/2/4 342/2/4 346/2/4
f 343/2/4 344/2/4 347/2/4
f 347/2/4 344/2/4 348/2/4
f 349/1/4 350/1/4 352/1/4
f 352/1/4 350/1/4 353/1/4
f 351/1/4 352/1/4 355/1/4
f 353/1/4 354/1/4 355/1/4
f 352/1/4 353/1/4 355/1/4
f 355/1/4 354/1/4 356/1/4
f 351/1/4 355/1/4 357/1/4
f 357/1/4 355/1/4 358/1/4
f 351/1/4 357/1/4 359/1/4
f 359/1/4 357/1/4 360/1/4
f 351/1/4 359/1/4 361/1/4
f 361/1/4 362/1/4 363/1/4
f 363/1/4 364/1/4 365/1/4
f 356/1/4 354/1/4 366/1/4
f 363/1/4 365/1/4 367/1/4
f 365/1/4 366/1/4 367/1/4
f 351/1/4 361/1/4 367/1/4
f 361/1/4 363/1/4 367/1/4
f 367/1/4 366/1/4 368/1/4
f 366/1/4 354/1/4 369/1/4
f 368/1/4 366/1/4 369/1/4
f 369/1/4 354/1/4 370/1/4
f 368/1/4 369/1/4 371/1/4
f 371/1/4 369/1/4 372/1/4
f 373/1/4 374/1/4 377/1/4
f 375/1/4 376/1/4 378/1/4
f 377/1/4 374/1/4 379/1/4
f 379/1/4 374/1/4 380/1/4
f 375/1/4 378/1/4 381/1/4
f 381/1/4 378/1/4 382/1/4
f 383/1/4 384/1/4 387/1/4
f 385/1/4 386/1/4 388/1/4
f 387/1/4 384/1/4 389/1/4
f 389/1/4 384/1/4 390/1/4
f 385/1/4 388/1/4 391/1/4
f 391/1/4 388/1/4 392/1/4
f 393/2/4 394/2/4 397/2/4
f 397/2/4 394/2/4 398/2/4
f 395/2/4 396/2/4 401/2/4
f 401/2/4 396/2/4 402/2/4
f 399/1/4 400/1/4 404/1/4
f 404/1/4 400/1/4 405/1/4
f 403/1/4 404/1/4 407/1/4
f 405/1/4 406/1/4 407/1/4
f 404/1/4 405/1/4 407/1/4
f 407/1/4 406/1/4 408/1/4
f 403/1/4 407/1/4 409/1/4
f 409/1/4 407/1/4 410/1/4
f 403/1/4 409/1/4 411/1/4
f 411/1/4 409/1/4 412/1/4
f 403/1/4 411/1/4 413/1/4
f 413/1/4 414/1/4 415/1/4
f 415/1/4 416/1/4 417/1/4
f 408/1/4 406/1/4 418/1/4
f 415/1/4 417/1/4 419/1/4
f 417/1/4 418/1/4 419/1/4
f 403/1/4 413/1/4 419/1/4
f 413/1/4 415/1/4 419/1/4
f 419/1/4 418/1/4 420/1/4
f 418/1/4 406/1/4 421/1/4
f 420/1/4 418/1/4 421/1/4
f 421/1/4 406/1/4 422/1/4
f 420/1/4 421/1/4 425/1/4
f 425/1/4 421/1/4 426/1/4
f 423/2/4 424/2/4 429/2/4
f 429/2/4 424/2/4 430/2/4
f 427/2/4 428/2/4 431/2/4
f 431/2/4 428/2/4 432/2/4
f 433/2/4 434/2/4 435/2/4
f 435/2/4 434/2/4 436/2/4
f 437/2/4 438/2/4 440/2/4
f 439/2/4 440/2/4 442/2/4
f 440/2/4 438/2/4 443/2/4
f 442/2/4 440/2/4 443/2/4
f 443/2/4 438/2/4 444/2/4
f 441/2/4 442/2/4 445/2/4
f 442/2/4 443/2/4 445/2/4
f 445/2/4 443/2/4 446/2/4
f 443/1/4 444/1/4 447/1/4
f 446/2/4 443/2/4 447/2/4
f 444/2/4 438/2/4 448/2/4
f 447/1/4 444/1/4 448/1/4
f 446/2/4 447/2/4 449/2/4
f 447/2/4 448/2/4 449/2/4
f 449/2/4 448/2/4 450/2/4
f 450/2/4 448/2/4 451/2/4
f 448/2/4 438/2/4 452/2/4
f 451/2/4 448/2/4 452/2/4
f 453/2/4 454/2/4 455/2/4
f 455/2/4 454/2/4 456/2/4
f 461/2/5 458/2/5 457/2/5
f 462/2/5 458/2/5 461/2/5
f 463/2/5 460/2/5 459/2/5
f 464/2/5 460/2/5 463/2/5
f 469/2/5 466/2/5 465/2/5
f 470/2/5 466/2/5 469/2/5
f 473/2/5 468/2/5 467/2/5
f 474/2/5 468/2/5 473/2/5
f 476/1/5 472/1/5 471/1/5
f 477/1/5 472/1/5 476/1/5
f 479/1/5 476/1/5 475/1/5
f 480/1/5 476/1/5 479/1/5
f 481/1/5 478/1/5 477/1/5
f 482/1/5 478/1/5 481/1/5
f 485/1/5 481/1/5 480/1/5
f 486/1/5 481/1/5 485/1/5
f 489/2/5 484/2/5 483/2/5
f 490/2/5 484/2/5 489/2/5
f 491/2/5 488/2/5 487/2/5
f 492/2/5 488/2/5 491/2/5
f 499/1/5 494/1/5 493/1/5
f 499/1/5 495/1/5 494/1/5
f 500/1/5 495/1/5 499/1/5
f 501/1/5 498/1/5 497/1/5
f 501/1/5 497/1/5 496/1/5
f 502/1/5 498/1/5 501/1/5
f 507/1/5 504/1/5 503/1/5
f 508/1/5 504/1/5 507/1/5
f 509/1/5 504/1/5 508/1/5
f 510/1/5 506/1/5 505/1/5
f 511/1/5 506/1/5 510/1/5
f 512/1/5 506/1/5 511/1/5
f 515/2/5 514/2/5 513/2/5
f 516/2/5 514/2/5 515/2/5
f 519/2/5 518/2/5 517/2/5
f 520/2/5 518/2/5 519/2/5
f 523/2/5 522/2/5 521/2/5
f 524/2/5 522/2/5 523/2/5
f 529/2/5 526/2/5 525/2/5
f 530/2/5 526/2/5 529/2/5
f 531/2/5 528/2/5 527/2/5
f 532/2/5 528/2/5 531/2/5
f 537/2/5 534/2/5 533/2/5
f 538/2/5 534/2/5 537/2/5
f 539/2/5 536/2/5 535/2/5
f 540/2/5 536/2/5 539/2/5
f 545/2/5 542/2/5 541/2/5
f 546/2/5 542/2/5 545/2/5
f 547/2/5 544/2/5 543/2/5
f 548/2/5 544/2/5 547/2/5
f 553/2/5 550/2/5 549/2/5
f 554/2/5 550/2/5 553/2/5
f 555/2/5 552/2/5 551/2/5
f 556/2/5 552/2/5 555/2/5
f 561/2/5 558/2/5 557/2/5
f 562/2/5 558/2/5 561/2/5
f 563/2/5 560/2/5 559/2/5
f 564/2/5 560/2/5 563/2/5
f 569/2/5 566/2/5 565/2/5
f 570/2/5 566/2/5 569/2/5
f 571/2/5 568/2/5 567/2/5
f 572/2/5 568/2/5 571/2/5
f 577/1/5 574/1/5 573/1/5
f 578/1/5 574/1/5 577/1/5
f 579/1/5 576/1/5 575/1/5
f 580/1/5 576/1/5 579/1/5
f 585/2/5 582/2/5 581/2/5
f 586/2/5 582/2/5 585/2/5
f 587/2/5 584/2/5 583/2/5
f 588/2/5 584/2/5 587/2/5
f 593/2/5 590/2/5 589/2/5
f 594/2/5 590/2/5 593/2/5
f 595/2/5 592/2/5 591/2/5
f 596/2/5 592/2/5 595/2/5
f 597/2/6 598/2/6 601/2/6
f 601/2/6 598/2/6 602/2/6
f 599/2/6 600/2/6 603/2/6
f 603/2/6 600/2/6 604/2/6
f 605/2/6 606/2/6 609/2/6
f 609/2/6 606/2/6 610/2/6
f 607/2/6 608/2/6 611/2/6
f 611/2/6 608/2/6 612/2/6
f 613/1/6 614/1/6 617/1/6
f 617/1/6 614/1/6 618/1/6
f 615/1/6 616/1/6 619/1/6
f 619/1/6 616/1/6 620/1/6
f 621/2/6 622/2/6 623/2/6
f 623/2/6 622/2/6 624/2/6
f 625/2/6 626/2/6 627/2/6
f 627/2/6 626/2/6 628/2/6
f 629/2/6 630/2/6 631/2/6
f 631/2/6 630/2/6 632/2/6
f 633/1/6 634/1/6 639/1/6
f 634/1/6 635/1/6 639/1/6
f 639/1/6 635/1/6 640/1/6
f 637/1/6 638/1/6 641/1/6
f 636/1/6 637/1/6 641/1/6
f 641/1/6 638/1/6 642/1/6
f 643/1/6 644/1/6 647/1/6
f 647/1/6 644/1/6 648/1/6
f 648/1/6 644/1/6 649/1/6
f 645/1/6 646/1/6 650/1/6
f 650/1/6 646/1/6 651/1/6
f 651/1/6 646/1/6 652/1/6
f 653/2/6 654/2/6 657/2/6
f 657/2/6 654/2/6 658/2/6
f 655/2/6 656/2/6 661/2/6
f 661/2/6 656/2/6 662/2/6
f 659/1/6 660/1/6 664/1/6
f 664/1/6 660/1/6 665/1/6
f 663/1/6 664/1/6 667/1/6
f 667/1/6 664/1/6 668/1/6
f 665/1/6 666/1/6 669/1/6
f 669/1/6 666/1/6 670/1/6
f 668/1/6 669/1/6 673/1/6
f 673/1/6 669/1/6 674/1/6
f 671/2/6 672/2/6 677/2/6
f 677/2/6 672/2/6 678/2/6
f 675/2/6 676/2/6 679/2/6
f 679/2/6 676/2/6 680/2/6
f 681/2/6 682/2/6 685/2/6
f 685/2/6 682/2/6 686/2/6
f 683/2/6 684/2/6 687/2/6
f 687/2/6 684/2/6 688/2/6
