# MagicaVoxel @ Ephtracy

# group
o 

# material
mtllib ufo.mtl
usemtl palette

# normals
vn -1 0 0
vn 1 0 0
vn 0 0 1
vn 0 0 -1
vn 0 -1 0
vn 0 1 0

# texcoords
vt 0.0332031 0.5
vt 0.115234 0.5
vt 0.119141 0.5
vt 0.134766 0.5
vt 0.138672 0.5

# verts
v -0.8 0.7 0.1
v -0.8 0.7 0
v -0.8 0.8 0.1
v -0.8 0.8 0
v -0.6 0.7 0.2
v -0.6 0.7 0.1
v -0.6 0.7 0
v -0.6 0.7 -0.1
v -0.6 0.8 0.2
v -0.6 0.8 0.1
v -0.6 0.8 0
v -0.6 0.8 -0.1
v -0.5 0.7 0.3
v -0.5 0.7 0.2
v -0.5 0.7 -0.1
v -0.5 0.7 -0.2
v -0.5 0.8 0.3
v -0.5 0.8 0.2
v -0.5 0.8 -0.1
v -0.5 0.8 -0.2
v -0.4 0.6 0.2
v -0.4 0.6 -0.1
v -0.4 0.7 0.4
v -0.4 0.7 0.3
v -0.4 0.7 0.2
v -0.4 0.7 -0.1
v -0.4 0.7 -0.2
v -0.4 0.7 -0.3
v -0.4 0.8 0.4
v -0.4 0.8 0.3
v -0.4 0.8 0.2
v -0.4 0.8 -0.1
v -0.4 0.8 -0.2
v -0.4 0.8 -0.3
v -0.4 0.9 0.2
v -0.4 0.9 -0.1
v -0.3 0.6 0.3
v -0.3 0.6 0.2
v -0.3 0.6 -0.1
v -0.3 0.6 -0.2
v -0.3 0.7 0.5
v -0.3 0.7 0.4
v -0.3 0.7 0.3
v -0.3 0.7 0.2
v -0.3 0.7 -0.1
v -0.3 0.7 -0.2
v -0.3 0.7 -0.3
v -0.3 0.7 -0.4
v -0.3 0.8 0.5
v -0.3 0.8 0.4
v -0.3 0.8 0.3
v -0.3 0.8 0.2
v -0.3 0.8 -0.1
v -0.3 0.8 -0.2
v -0.3 0.8 -0.3
v -0.3 0.8 -0.4
v -0.3 0.9 0.3
v -0.3 0.9 0.2
v -0.3 0.9 -0.1
v -0.3 0.9 -0.2
v -0.2 0.4 0.2
v -0.2 0.4 -0.1
v -0.2 0.5 0.2
v -0.2 0.5 -0.1
v -0.2 0.6 0.4
v -0.2 0.6 0.3
v -0.2 0.6 -0.2
v -0.2 0.6 -0.3
v -0.2 0.7 0.6
v -0.2 0.7 0.5
v -0.2 0.7 0.4
v -0.2 0.7 0.3
v -0.2 0.7 -0.2
v -0.2 0.7 -0.3
v -0.2 0.7 -0.4
v -0.2 0.7 -0.5
v -0.2 0.8 0.6
v -0.2 0.8 0.5
v -0.2 0.8 0.4
v -0.2 0.8 0.3
v -0.2 0.8 -0.2
v -0.2 0.8 -0.3
v -0.2 0.8 -0.4
v -0.2 0.8 -0.5
v -0.2 0.9 0.4
v -0.2 0.9 0.3
v -0.2 0.9 -0.2
v -0.2 0.9 -0.3
v -0.2 1 0.2
v -0.2 1 -0.1
v -0.2 1.1 0.2
v -0.2 1.1 -0.1
v -0.1 0.5 0.1
v -0.1 0.5 0
v -0.1 0.6 0.1
v -0.1 0.6 0
v -0.1 0.7 0.8
v -0.1 0.7 0.7
v -0.1 0.7 0.6
v -0.1 0.7 -0.5
v -0.1 0.7 -0.6
v -0.1 0.7 -0.7
v -0.1 0.8 0.8
v -0.1 0.8 0.7
v -0.1 0.8 0.6
v -0.1 0.8 -0.5
v -0.1 0.8 -0.6
v -0.1 0.8 -0.7
v -0.1 0.9 0.1
v -0.1 0.9 0
v -0.1 1 0.1
v -0.1 1 0
v 0 0.5 0.1
v 0 0.5 0
v 0 0.6 0.1
v 0 0.6 0
v 0 0.7 0.8
v 0 0.7 0.7
v 0 0.7 0.6
v 0 0.7 -0.5
v 0 0.7 -0.6
v 0 0.7 -0.7
v 0 0.8 0.8
v 0 0.8 0.7
v 0 0.8 0.6
v 0 0.8 -0.5
v 0 0.8 -0.6
v 0 0.8 -0.7
v 0 0.9 0.1
v 0 0.9 0
v 0 1 0.1
v 0 1 0
v 0.1 0.4 0.2
v 0.1 0.4 -0.1
v 0.1 0.5 0.2
v 0.1 0.5 -0.1
v 0.1 0.6 0.4
v 0.1 0.6 0.3
v 0.1 0.6 -0.2
v 0.1 0.6 -0.3
v 0.1 0.7 0.6
v 0.1 0.7 0.5
v 0.1 0.7 0.4
v 0.1 0.7 0.3
v 0.1 0.7 -0.2
v 0.1 0.7 -0.3
v 0.1 0.7 -0.4
v 0.1 0.7 -0.5
v 0.1 0.8 0.6
v 0.1 0.8 0.5
v 0.1 0.8 0.4
v 0.1 0.8 0.3
v 0.1 0.8 -0.2
v 0.1 0.8 -0.3
v 0.1 0.8 -0.4
v 0.1 0.8 -0.5
v 0.1 0.9 0.4
v 0.1 0.9 0.3
v 0.1 0.9 -0.2
v 0.1 0.9 -0.3
v 0.1 1 0.2
v 0.1 1 -0.1
v 0.1 1.1 0.2
v 0.1 1.1 -0.1
v 0.2 0.6 0.3
v 0.2 0.6 0.2
v 0.2 0.6 -0.1
v 0.2 0.6 -0.2
v 0.2 0.7 0.5
v 0.2 0.7 0.4
v 0.2 0.7 0.3
v 0.2 0.7 0.2
v 0.2 0.7 -0.1
v 0.2 0.7 -0.2
v 0.2 0.7 -0.3
v 0.2 0.7 -0.4
v 0.2 0.8 0.5
v 0.2 0.8 0.4
v 0.2 0.8 0.3
v 0.2 0.8 0.2
v 0.2 0.8 -0.1
v 0.2 0.8 -0.2
v 0.2 0.8 -0.3
v 0.2 0.8 -0.4
v 0.2 0.9 0.3
v 0.2 0.9 0.2
v 0.2 0.9 -0.1
v 0.2 0.9 -0.2
v 0.3 0.6 0.2
v 0.3 0.6 -0.1
v 0.3 0.7 0.4
v 0.3 0.7 0.3
v 0.3 0.7 0.2
v 0.3 0.7 -0.1
v 0.3 0.7 -0.2
v 0.3 0.7 -0.3
v 0.3 0.8 0.4
v 0.3 0.8 0.3
v 0.3 0.8 0.2
v 0.3 0.8 -0.1
v 0.3 0.8 -0.2
v 0.3 0.8 -0.3
v 0.3 0.9 0.2
v 0.3 0.9 -0.1
v 0.4 0.7 0.3
v 0.4 0.7 0.2
v 0.4 0.7 -0.1
v 0.4 0.7 -0.2
v 0.4 0.8 0.3
v 0.4 0.8 0.2
v 0.4 0.8 -0.1
v 0.4 0.8 -0.2
v 0.5 0.7 0.2
v 0.5 0.7 0.1
v 0.5 0.7 0
v 0.5 0.7 -0.1
v 0.5 0.8 0.2
v 0.5 0.8 0.1
v 0.5 0.8 0
v 0.5 0.8 -0.1
v 0.7 0.7 0.1
v 0.7 0.7 0
v 0.7 0.8 0.1
v 0.7 0.8 0
v -0.1 0.7 0.8
v -0.1 0.8 0.8
v 0 0.7 0.8
v 0 0.8 0.8
v -0.2 0.7 0.6
v -0.2 0.8 0.6
v -0.1 0.7 0.6
v -0.1 0.8 0.6
v 0 0.7 0.6
v 0 0.8 0.6
v 0.1 0.7 0.6
v 0.1 0.8 0.6
v -0.3 0.7 0.5
v -0.3 0.8 0.5
v -0.2 0.7 0.5
v -0.2 0.8 0.5
v 0.1 0.7 0.5
v 0.1 0.8 0.5
v 0.2 0.7 0.5
v 0.2 0.8 0.5
v -0.4 0.7 0.4
v -0.4 0.8 0.4
v -0.3 0.7 0.4
v -0.3 0.8 0.4
v -0.2 0.6 0.4
v -0.2 0.7 0.4
v -0.2 0.8 0.4
v -0.2 0.9 0.4
v 0.1 0.6 0.4
v 0.1 0.7 0.4
v 0.1 0.8 0.4
v 0.1 0.9 0.4
v 0.2 0.7 0.4
v 0.2 0.8 0.4
v 0.3 0.7 0.4
v 0.3 0.8 0.4
v -0.5 0.7 0.3
v -0.5 0.8 0.3
v -0.4 0.7 0.3
v -0.4 0.8 0.3
v -0.3 0.6 0.3
v -0.3 0.7 0.3
v -0.3 0.8 0.3
v -0.3 0.9 0.3
v -0.2 0.6 0.3
v -0.2 0.7 0.3
v -0.2 0.8 0.3
v -0.2 0.9 0.3
v 0.1 0.6 0.3
v 0.1 0.7 0.3
v 0.1 0.8 0.3
v 0.1 0.9 0.3
v 0.2 0.6 0.3
v 0.2 0.7 0.3
v 0.2 0.8 0.3
v 0.2 0.9 0.3
v 0.3 0.7 0.3
v 0.3 0.8 0.3
v 0.4 0.7 0.3
v 0.4 0.8 0.3
v -0.6 0.7 0.2
v -0.6 0.8 0.2
v -0.5 0.7 0.2
v -0.5 0.8 0.2
v -0.4 0.6 0.2
v -0.4 0.7 0.2
v -0.4 0.8 0.2
v -0.4 0.9 0.2
v -0.3 0.6 0.2
v -0.3 0.7 0.2
v -0.3 0.8 0.2
v -0.3 0.9 0.2
v -0.2 0.4 0.2
v -0.2 0.5 0.2
v -0.2 1 0.2
v -0.2 1.1 0.2
v 0.1 0.4 0.2
v 0.1 0.5 0.2
v 0.1 1 0.2
v 0.1 1.1 0.2
v 0.2 0.6 0.2
v 0.2 0.7 0.2
v 0.2 0.8 0.2
v 0.2 0.9 0.2
v 0.3 0.6 0.2
v 0.3 0.7 0.2
v 0.3 0.8 0.2
v 0.3 0.9 0.2
v 0.4 0.7 0.2
v 0.4 0.8 0.2
v 0.5 0.7 0.2
v 0.5 0.8 0.2
v -0.8 0.7 0.1
v -0.8 0.8 0.1
v -0.7 0.7 0.1
v -0.7 0.8 0.1
v -0.6 0.7 0.1
v -0.6 0.8 0.1
v -0.1 0.5 0.1
v -0.1 0.6 0.1
v -0.1 0.9 0.1
v -0.1 1 0.1
v 0 0.5 0.1
v 0 0.6 0.1
v 0 0.9 0.1
v 0 1 0.1
v 0.5 0.7 0.1
v 0.5 0.8 0.1
v 0.6 0.7 0.1
v 0.6 0.8 0.1
v 0.7 0.7 0.1
v 0.7 0.8 0.1
v -0.8 0.7 0
v -0.8 0.8 0
v -0.7 0.7 0
v -0.7 0.8 0
v -0.6 0.7 0
v -0.6 0.8 0
v -0.1 0.5 0
v -0.1 0.6 0
v -0.1 0.9 0
v -0.1 1 0
v 0 0.5 0
v 0 0.6 0
v 0 0.9 0
v 0 1 0
v 0.5 0.7 0
v 0.5 0.8 0
v 0.6 0.7 0
v 0.6 0.8 0
v 0.7 0.7 0
v 0.7 0.8 0
v -0.6 0.7 -0.1
v -0.6 0.8 -0.1
v -0.5 0.7 -0.1
v -0.5 0.8 -0.1
v -0.4 0.6 -0.1
v -0.4 0.7 -0.1
v -0.4 0.8 -0.1
v -0.4 0.9 -0.1
v -0.3 0.6 -0.1
v -0.3 0.7 -0.1
v -0.3 0.8 -0.1
v -0.3 0.9 -0.1
v -0.2 0.4 -0.1
v -0.2 0.5 -0.1
v -0.2 1 -0.1
v -0.2 1.1 -0.1
v 0.1 0.4 -0.1
v 0.1 0.5 -0.1
v 0.1 1 -0.1
v 0.1 1.1 -0.1
v 0.2 0.6 -0.1
v 0.2 0.7 -0.1
v 0.2 0.8 -0.1
v 0.2 0.9 -0.1
v 0.3 0.6 -0.1
v 0.3 0.7 -0.1
v 0.3 0.8 -0.1
v 0.3 0.9 -0.1
v 0.4 0.7 -0.1
v 0.4 0.8 -0.1
v 0.5 0.7 -0.1
v 0.5 0.8 -0.1
v -0.5 0.7 -0.2
v -0.5 0.8 -0.2
v -0.4 0.7 -0.2
v -0.4 0.8 -0.2
v -0.3 0.6 -0.2
v -0.3 0.7 -0.2
v -0.3 0.8 -0.2
v -0.3 0.9 -0.2
v -0.2 0.6 -0.2
v -0.2 0.7 -0.2
v -0.2 0.8 -0.2
v -0.2 0.9 -0.2
v 0.1 0.6 -0.2
v 0.1 0.7 -0.2
v 0.1 0.8 -0.2
v 0.1 0.9 -0.2
v 0.2 0.6 -0.2
v 0.2 0.7 -0.2
v 0.2 0.8 -0.2
v 0.2 0.9 -0.2
v 0.3 0.7 -0.2
v 0.3 0.8 -0.2
v 0.4 0.7 -0.2
v 0.4 0.8 -0.2
v -0.4 0.7 -0.3
v -0.4 0.8 -0.3
v -0.3 0.7 -0.3
v -0.3 0.8 -0.3
v -0.2 0.6 -0.3
v -0.2 0.7 -0.3
v -0.2 0.8 -0.3
v -0.2 0.9 -0.3
v 0.1 0.6 -0.3
v 0.1 0.7 -0.3
v 0.1 0.8 -0.3
v 0.1 0.9 -0.3
v 0.2 0.7 -0.3
v 0.2 0.8 -0.3
v 0.3 0.7 -0.3
v 0.3 0.8 -0.3
v -0.3 0.7 -0.4
v -0.3 0.8 -0.4
v -0.2 0.7 -0.4
v -0.2 0.8 -0.4
v 0.1 0.7 -0.4
v 0.1 0.8 -0.4
v 0.2 0.7 -0.4
v 0.2 0.8 -0.4
v -0.2 0.7 -0.5
v -0.2 0.8 -0.5
v -0.1 0.7 -0.5
v -0.1 0.8 -0.5
v 0 0.7 -0.5
v 0 0.8 -0.5
v 0.1 0.7 -0.5
v 0.1 0.8 -0.5
v -0.1 0.7 -0.7
v -0.1 0.8 -0.7
v 0 0.7 -0.7
v 0 0.8 -0.7
v -0.2 0.4 0.2
v 0.1 0.4 0.2
v -0.2 0.4 -0.1
v 0.1 0.4 -0.1
v -0.2 0.6 0.4
v 0.1 0.6 0.4
v -0.3 0.6 0.3
v -0.2 0.6 0.3
v 0.1 0.6 0.3
v 0.2 0.6 0.3
v -0.4 0.6 0.2
v -0.3 0.6 0.2
v 0.2 0.6 0.2
v 0.3 0.6 0.2
v -0.1 0.6 0.1
v 0 0.6 0.1
v -0.1 0.6 0
v 0 0.6 0
v -0.4 0.6 -0.1
v -0.3 0.6 -0.1
v 0.2 0.6 -0.1
v 0.3 0.6 -0.1
v -0.3 0.6 -0.2
v -0.2 0.6 -0.2
v 0.1 0.6 -0.2
v 0.2 0.6 -0.2
v -0.2 0.6 -0.3
v 0.1 0.6 -0.3
v -0.1 0.7 0.8
v 0 0.7 0.8
v -0.1 0.7 0.7
v 0 0.7 0.7
v -0.2 0.7 0.6
v -0.1 0.7 0.6
v 0 0.7 0.6
v 0.1 0.7 0.6
v -0.3 0.7 0.5
v -0.2 0.7 0.5
v 0.1 0.7 0.5
v 0.2 0.7 0.5
v -0.4 0.7 0.4
v -0.3 0.7 0.4
v -0.2 0.7 0.4
v 0.1 0.7 0.4
v 0.2 0.7 0.4
v 0.3 0.7 0.4
v -0.5 0.7 0.3
v -0.4 0.7 0.3
v -0.3 0.7 0.3
v -0.2 0.7 0.3
v 0.1 0.7 0.3
v 0.2 0.7 0.3
v 0.3 0.7 0.3
v 0.4 0.7 0.3
v -0.6 0.7 0.2
v -0.5 0.7 0.2
v -0.4 0.7 0.2
v -0.3 0.7 0.2
v 0.2 0.7 0.2
v 0.3 0.7 0.2
v 0.4 0.7 0.2
v 0.5 0.7 0.2
v -0.8 0.7 0.1
v -0.7 0.7 0.1
v -0.6 0.7 0.1
v 0.5 0.7 0.1
v 0.6 0.7 0.1
v 0.7 0.7 0.1
v -0.8 0.7 0
v -0.7 0.7 0
v -0.6 0.7 0
v 0.5 0.7 0
v 0.6 0.7 0
v 0.7 0.7 0
v -0.6 0.7 -0.1
v -0.5 0.7 -0.1
v -0.4 0.7 -0.1
v -0.3 0.7 -0.1
v 0.2 0.7 -0.1
v 0.3 0.7 -0.1
v 0.4 0.7 -0.1
v 0.5 0.7 -0.1
v -0.5 0.7 -0.2
v -0.4 0.7 -0.2
v -0.3 0.7 -0.2
v -0.2 0.7 -0.2
v 0.1 0.7 -0.2
v 0.2 0.7 -0.2
v 0.3 0.7 -0.2
v 0.4 0.7 -0.2
v -0.4 0.7 -0.3
v -0.3 0.7 -0.3
v -0.2 0.7 -0.3
v 0.1 0.7 -0.3
v 0.2 0.7 -0.3
v 0.3 0.7 -0.3
v -0.3 0.7 -0.4
v -0.2 0.7 -0.4
v 0.1 0.7 -0.4
v 0.2 0.7 -0.4
v -0.2 0.7 -0.5
v -0.1 0.7 -0.5
v 0 0.7 -0.5
v 0.1 0.7 -0.5
v -0.1 0.7 -0.6
v 0 0.7 -0.6
v -0.1 0.7 -0.7
v 0 0.7 -0.7
v -0.2 1 0.2
v 0.1 1 0.2
v -0.1 1 0.1
v 0 1 0.1
v -0.1 1 0
v 0 1 0
v -0.2 1 -0.1
v 0.1 1 -0.1
v -0.2 0.5 0.2
v 0.1 0.5 0.2
v -0.1 0.5 0.1
v 0 0.5 0.1
v -0.1 0.5 0
v 0 0.5 0
v -0.2 0.5 -0.1
v 0.1 0.5 -0.1
v -0.1 0.8 0.8
v 0 0.8 0.8
v -0.1 0.8 0.7
v 0 0.8 0.7
v -0.2 0.8 0.6
v -0.1 0.8 0.6
v 0 0.8 0.6
v 0.1 0.8 0.6
v -0.3 0.8 0.5
v -0.2 0.8 0.5
v 0.1 0.8 0.5
v 0.2 0.8 0.5
v -0.4 0.8 0.4
v -0.3 0.8 0.4
v -0.2 0.8 0.4
v 0.1 0.8 0.4
v 0.2 0.8 0.4
v 0.3 0.8 0.4
v -0.5 0.8 0.3
v -0.4 0.8 0.3
v -0.3 0.8 0.3
v -0.2 0.8 0.3
v 0.1 0.8 0.3
v 0.2 0.8 0.3
v 0.3 0.8 0.3
v 0.4 0.8 0.3
v -0.6 0.8 0.2
v -0.5 0.8 0.2
v -0.4 0.8 0.2
v -0.3 0.8 0.2
v 0.2 0.8 0.2
v 0.3 0.8 0.2
v 0.4 0.8 0.2
v 0.5 0.8 0.2
v -0.8 0.8 0.1
v -0.7 0.8 0.1
v -0.6 0.8 0.1
v 0.5 0.8 0.1
v 0.6 0.8 0.1
v 0.7 0.8 0.1
v -0.8 0.8 0
v -0.7 0.8 0
v -0.6 0.8 0
v 0.5 0.8 0
v 0.6 0.8 0
v 0.7 0.8 0
v -0.6 0.8 -0.1
v -0.5 0.8 -0.1
v -0.4 0.8 -0.1
v -0.3 0.8 -0.1
v 0.2 0.8 -0.1
v 0.3 0.8 -0.1
v 0.4 0.8 -0.1
v 0.5 0.8 -0.1
v -0.5 0.8 -0.2
v -0.4 0.8 -0.2
v -0.3 0.8 -0.2
v -0.2 0.8 -0.2
v 0.1 0.8 -0.2
v 0.2 0.8 -0.2
v 0.3 0.8 -0.2
v 0.4 0.8 -0.2
v -0.4 0.8 -0.3
v -0.3 0.8 -0.3
v -0.2 0.8 -0.3
v 0.1 0.8 -0.3
v 0.2 0.8 -0.3
v 0.3 0.8 -0.3
v -0.3 0.8 -0.4
v -0.2 0.8 -0.4
v 0.1 0.8 -0.4
v 0.2 0.8 -0.4
v -0.2 0.8 -0.5
v -0.1 0.8 -0.5
v 0 0.8 -0.5
v 0.1 0.8 -0.5
v -0.1 0.8 -0.6
v 0 0.8 -0.6
v -0.1 0.8 -0.7
v 0 0.8 -0.7
v -0.2 0.9 0.4
v 0.1 0.9 0.4
v -0.3 0.9 0.3
v -0.2 0.9 0.3
v 0.1 0.9 0.3
v 0.2 0.9 0.3
v -0.4 0.9 0.2
v -0.3 0.9 0.2
v 0.2 0.9 0.2
v 0.3 0.9 0.2
v -0.1 0.9 0.1
v 0 0.9 0.1
v -0.1 0.9 0
v 0 0.9 0
v -0.4 0.9 -0.1
v -0.3 0.9 -0.1
v 0.2 0.9 -0.1
v 0.3 0.9 -0.1
v -0.3 0.9 -0.2
v -0.2 0.9 -0.2
v 0.1 0.9 -0.2
v 0.2 0.9 -0.2
v -0.2 0.9 -0.3
v 0.1 0.9 -0.3
v -0.2 1.1 0.2
v 0.1 1.1 0.2
v -0.2 1.1 -0.1
v 0.1 1.1 -0.1

# faces
f 3/4/1 2/4/1 1/4/1
f 4/4/1 2/4/1 3/4/1
f 9/5/1 6/5/1 5/5/1
f 10/5/1 6/5/1 9/5/1
f 11/5/1 8/5/1 7/5/1
f 12/5/1 8/5/1 11/5/1
f 17/2/1 14/2/1 13/2/1
f 18/2/1 14/2/1 17/2/1
f 19/2/1 16/2/1 15/2/1
f 20/2/1 16/2/1 19/2/1
f 25/3/1 22/3/1 21/3/1
f 26/3/1 22/3/1 25/3/1
f 29/2/1 24/2/1 23/2/1
f 30/2/1 24/2/1 29/2/1
f 33/2/1 28/2/1 27/2/1
f 34/2/1 28/2/1 33/2/1
f 35/3/1 32/3/1 31/3/1
f 36/3/1 32/3/1 35/3/1
f 43/3/1 38/3/1 37/3/1
f 44/3/1 38/3/1 43/3/1
f 45/3/1 40/3/1 39/3/1
f 46/3/1 40/3/1 45/3/1
f 49/2/1 42/2/1 41/2/1
f 50/2/1 42/2/1 49/2/1
f 55/2/1 48/2/1 47/2/1
f 56/2/1 48/2/1 55/2/1
f 57/3/1 52/3/1 51/3/1
f 58/3/1 52/3/1 57/3/1
f 59/3/1 54/3/1 53/3/1
f 60/3/1 54/3/1 59/3/1
f 63/1/1 62/1/1 61/1/1
f 64/1/1 62/1/1 63/1/1
f 71/3/1 66/3/1 65/3/1
f 72/3/1 66/3/1 71/3/1
f 73/3/1 68/3/1 67/3/1
f 74/3/1 68/3/1 73/3/1
f 77/5/1 70/5/1 69/5/1
f 78/5/1 70/5/1 77/5/1
f 83/5/1 76/5/1 75/5/1
f 84/5/1 76/5/1 83/5/1
f 85/3/1 80/3/1 79/3/1
f 86/3/1 80/3/1 85/3/1
f 87/3/1 82/3/1 81/3/1
f 88/3/1 82/3/1 87/3/1
f 91/1/1 90/1/1 89/1/1
f 92/1/1 90/1/1 91/1/1
f 95/1/1 94/1/1 93/1/1
f 96/1/1 94/1/1 95/1/1
f 103/4/1 98/4/1 97/4/1
f 104/5/1 99/5/1 98/5/1
f 104/4/1 98/4/1 103/4/1
f 105/5/1 99/5/1 104/5/1
f 106/5/1 101/5/1 100/5/1
f 107/4/1 102/4/1 101/4/1
f 107/5/1 101/5/1 106/5/1
f 108/4/1 102/4/1 107/4/1
f 111/1/1 110/1/1 109/1/1
f 112/1/1 110/1/1 111/1/1
f 113/1/2 114/1/2 115/1/2
f 115/1/2 114/1/2 116/1/2
f 117/4/2 118/4/2 123/4/2
f 118/5/2 119/5/2 124/5/2
f 123/4/2 118/4/2 124/4/2
f 124/5/2 119/5/2 125/5/2
f 120/5/2 121/5/2 126/5/2
f 121/4/2 122/4/2 127/4/2
f 126/5/2 121/5/2 127/5/2
f 127/4/2 122/4/2 128/4/2
f 129/1/2 130/1/2 131/1/2
f 131/1/2 130/1/2 132/1/2
f 133/1/2 134/1/2 135/1/2
f 135/1/2 134/1/2 136/1/2
f 137/3/2 138/3/2 143/3/2
f 143/3/2 138/3/2 144/3/2
f 139/3/2 140/3/2 145/3/2
f 145/3/2 140/3/2 146/3/2
f 141/5/2 142/5/2 149/5/2
f 149/5/2 142/5/2 150/5/2
f 147/5/2 148/5/2 155/5/2
f 155/5/2 148/5/2 156/5/2
f 151/3/2 152/3/2 157/3/2
f 157/3/2 152/3/2 158/3/2
f 153/3/2 154/3/2 159/3/2
f 159/3/2 154/3/2 160/3/2
f 161/1/2 162/1/2 163/1/2
f 163/1/2 162/1/2 164/1/2
f 165/3/2 166/3/2 171/3/2
f 171/3/2 166/3/2 172/3/2
f 167/3/2 168/3/2 173/3/2
f 173/3/2 168/3/2 174/3/2
f 169/2/2 170/2/2 177/2/2
f 177/2/2 170/2/2 178/2/2
f 175/2/2 176/2/2 183/2/2
f 183/2/2 176/2/2 184/2/2
f 179/3/2 180/3/2 185/3/2
f 185/3/2 180/3/2 186/3/2
f 181/3/2 182/3/2 187/3/2
f 187/3/2 182/3/2 188/3/2
f 189/3/2 190/3/2 193/3/2
f 193/3/2 190/3/2 194/3/2
f 191/2/2 192/2/2 197/2/2
f 197/2/2 192/2/2 198/2/2
f 195/2/2 196/2/2 201/2/2
f 201/2/2 196/2/2 202/2/2
f 199/3/2 200/3/2 203/3/2
f 203/3/2 200/3/2 204/3/2
f 205/2/2 206/2/2 209/2/2
f 209/2/2 206/2/2 210/2/2
f 207/2/2 208/2/2 211/2/2
f 211/2/2 208/2/2 212/2/2
f 213/5/2 214/5/2 217/5/2
f 217/5/2 214/5/2 218/5/2
f 215/5/2 216/5/2 219/5/2
f 219/5/2 216/5/2 220/5/2
f 221/4/2 222/4/2 223/4/2
f 223/4/2 222/4/2 224/4/2
f 227/4/3 226/4/3 225/4/3
f 228/4/3 226/4/3 227/4/3
f 231/5/3 230/5/3 229/5/3
f 232/5/3 230/5/3 231/5/3
f 235/5/3 234/5/3 233/5/3
f 236/5/3 234/5/3 235/5/3
f 239/2/3 238/2/3 237/2/3
f 240/2/3 238/2/3 239/2/3
f 243/2/3 242/2/3 241/2/3
f 244/2/3 242/2/3 243/2/3
f 247/2/3 246/2/3 245/2/3
f 248/2/3 246/2/3 247/2/3
f 253/3/3 250/3/3 249/3/3
f 254/3/3 250/3/3 253/3/3
f 255/3/3 252/3/3 251/3/3
f 256/3/3 252/3/3 255/3/3
f 259/2/3 258/2/3 257/2/3
f 260/2/3 258/2/3 259/2/3
f 263/2/3 262/2/3 261/2/3
f 264/2/3 262/2/3 263/2/3
f 269/3/3 266/3/3 265/3/3
f 270/3/3 266/3/3 269/3/3
f 271/3/3 268/3/3 267/3/3
f 272/3/3 268/3/3 271/3/3
f 277/3/3 274/3/3 273/3/3
f 278/3/3 274/3/3 277/3/3
f 279/3/3 276/3/3 275/3/3
f 280/3/3 276/3/3 279/3/3
f 283/2/3 282/2/3 281/2/3
f 284/2/3 282/2/3 283/2/3
f 287/5/3 286/5/3 285/5/3
f 288/5/3 286/5/3 287/5/3
f 293/3/3 290/3/3 289/3/3
f 294/3/3 290/3/3 293/3/3
f 295/3/3 292/3/3 291/3/3
f 296/3/3 292/3/3 295/3/3
f 301/1/3 298/1/3 297/1/3
f 302/1/3 298/1/3 301/1/3
f 303/1/3 300/1/3 299/1/3
f 304/1/3 300/1/3 303/1/3
f 309/3/3 306/3/3 305/3/3
f 310/3/3 306/3/3 309/3/3
f 311/3/3 308/3/3 307/3/3
f 312/3/3 308/3/3 311/3/3
f 315/5/3 314/5/3 313/5/3
f 316/5/3 314/5/3 315/5/3
f 319/4/3 318/4/3 317/4/3
f 320/4/3 318/4/3 319/4/3
f 321/5/3 320/5/3 319/5/3
f 322/5/3 320/5/3 321/5/3
f 327/1/3 324/1/3 323/1/3
f 328/1/3 324/1/3 327/1/3
f 329/1/3 326/1/3 325/1/3
f 330/1/3 326/1/3 329/1/3
f 333/5/3 332/5/3 331/5/3
f 334/5/3 332/5/3 333/5/3
f 335/4/3 334/4/3 333/4/3
f 336/4/3 334/4/3 335/4/3
f 337/4/4 338/4/4 339/4/4
f 339/4/4 338/4/4 340/4/4
f 339/5/4 340/5/4 341/5/4
f 341/5/4 340/5/4 342/5/4
f 343/1/4 344/1/4 347/1/4
f 347/1/4 344/1/4 348/1/4
f 345/1/4 346/1/4 349/1/4
f 349/1/4 346/1/4 350/1/4
f 351/5/4 352/5/4 353/5/4
f 353/5/4 352/5/4 354/5/4
f 353/4/4 354/4/4 355/4/4
f 355/4/4 354/4/4 356/4/4
f 357/5/4 358/5/4 359/5/4
f 359/5/4 358/5/4 360/5/4
f 361/3/4 362/3/4 365/3/4
f 365/3/4 362/3/4 366/3/4
f 363/3/4 364/3/4 367/3/4
f 367/3/4 364/3/4 368/3/4
f 369/1/4 370/1/4 373/1/4
f 373/1/4 370/1/4 374/1/4
f 371/1/4 372/1/4 375/1/4
f 375/1/4 372/1/4 376/1/4
f 377/3/4 378/3/4 381/3/4
f 381/3/4 378/3/4 382/3/4
f 379/3/4 380/3/4 383/3/4
f 383/3/4 380/3/4 384/3/4
f 385/5/4 386/5/4 387/5/4
f 387/5/4 386/5/4 388/5/4
f 389/2/4 390/2/4 391/2/4
f 391/2/4 390/2/4 392/2/4
f 393/3/4 394/3/4 397/3/4
f 397/3/4 394/3/4 398/3/4
f 395/3/4 396/3/4 399/3/4
f 399/3/4 396/3/4 400/3/4
f 401/3/4 402/3/4 405/3/4
f 405/3/4 402/3/4 406/3/4
f 403/3/4 404/3/4 407/3/4
f 407/3/4 404/3/4 408/3/4
f 409/2/4 410/2/4 411/2/4
f 411/2/4 410/2/4 412/2/4
f 413/2/4 414/2/4 415/2/4
f 415/2/4 414/2/4 416/2/4
f 417/3/4 418/3/4 421/3/4
f 421/3/4 418/3/4 422/3/4
f 419/3/4 420/3/4 423/3/4
f 423/3/4 420/3/4 424/3/4
f 425/2/4 426/2/4 427/2/4
f 427/2/4 426/2/4 428/2/4
f 429/2/4 430/2/4 431/2/4
f 431/2/4 430/2/4 432/2/4
f 433/2/4 434/2/4 435/2/4
f 435/2/4 434/2/4 436/2/4
f 437/5/4 438/5/4 439/5/4
f 439/5/4 438/5/4 440/5/4
f 441/5/4 442/5/4 443/5/4
f 443/5/4 442/5/4 444/5/4
f 445/4/4 446/4/4 447/4/4
f 447/4/4 446/4/4 448/4/4
f 451/1/5 450/1/5 449/1/5
f 452/1/5 450/1/5 451/1/5
f 456/3/5 454/3/5 453/3/5
f 457/3/5 454/3/5 456/3/5
f 460/3/5 456/3/5 455/3/5
f 460/3/5 458/3/5 457/3/5
f 460/3/5 457/3/5 456/3/5
f 461/3/5 458/3/5 460/3/5
f 463/3/5 460/3/5 459/3/5
f 463/3/5 462/3/5 461/3/5
f 463/3/5 461/3/5 460/3/5
f 464/3/5 462/3/5 463/3/5
f 465/3/5 463/3/5 459/3/5
f 466/3/5 462/3/5 464/3/5
f 467/3/5 465/3/5 459/3/5
f 467/3/5 466/3/5 465/3/5
f 468/3/5 466/3/5 467/3/5
f 469/3/5 462/3/5 466/3/5
f 469/3/5 466/3/5 468/3/5
f 470/3/5 462/3/5 469/3/5
f 471/3/5 469/3/5 468/3/5
f 472/3/5 469/3/5 471/3/5
f 473/3/5 469/3/5 472/3/5
f 474/3/5 469/3/5 473/3/5
f 475/3/5 473/3/5 472/3/5
f 476/3/5 473/3/5 475/3/5
f 479/4/5 478/4/5 477/4/5
f 480/4/5 478/4/5 479/4/5
f 482/5/5 480/5/5 479/5/5
f 483/5/5 480/5/5 482/5/5
f 486/5/5 483/5/5 482/5/5
f 486/5/5 484/5/5 483/5/5
f 486/5/5 482/5/5 481/5/5
f 487/5/5 484/5/5 486/5/5
f 490/2/5 486/2/5 485/2/5
f 490/2/5 488/2/5 487/2/5
f 490/2/5 487/2/5 486/2/5
f 491/2/5 488/2/5 490/2/5
f 492/2/5 488/2/5 491/2/5
f 493/2/5 488/2/5 492/2/5
f 496/2/5 490/2/5 489/2/5
f 496/2/5 491/2/5 490/2/5
f 497/2/5 491/2/5 496/2/5
f 498/2/5 491/2/5 497/2/5
f 499/2/5 493/2/5 492/2/5
f 499/2/5 494/2/5 493/2/5
f 500/2/5 494/2/5 499/2/5
f 501/2/5 494/2/5 500/2/5
f 504/2/5 497/2/5 496/2/5
f 504/2/5 496/2/5 495/2/5
f 505/2/5 497/2/5 504/2/5
f 506/2/5 497/2/5 505/2/5
f 507/2/5 502/2/5 501/2/5
f 507/2/5 501/2/5 500/2/5
f 508/2/5 502/2/5 507/2/5
f 509/2/5 502/2/5 508/2/5
f 513/5/5 504/5/5 503/5/5
f 514/5/5 510/5/5 509/5/5
f 517/4/5 512/4/5 511/4/5
f 518/5/5 513/5/5 512/5/5
f 518/4/5 512/4/5 517/4/5
f 519/5/5 504/5/5 513/5/5
f 519/5/5 513/5/5 518/5/5
f 520/5/5 514/5/5 509/5/5
f 520/5/5 515/5/5 514/5/5
f 521/4/5 516/4/5 515/4/5
f 521/5/5 515/5/5 520/5/5
f 522/4/5 516/4/5 521/4/5
f 523/5/5 504/5/5 519/5/5
f 524/2/5 505/2/5 504/2/5
f 524/5/5 504/5/5 523/5/5
f 525/2/5 505/2/5 524/2/5
f 528/2/5 509/2/5 508/2/5
f 529/5/5 520/5/5 509/5/5
f 529/2/5 509/2/5 528/2/5
f 530/5/5 520/5/5 529/5/5
f 531/2/5 526/2/5 525/2/5
f 531/2/5 525/2/5 524/2/5
f 532/2/5 526/2/5 531/2/5
f 533/2/5 526/2/5 532/2/5
f 536/2/5 528/2/5 527/2/5
f 536/2/5 529/2/5 528/2/5
f 537/2/5 529/2/5 536/2/5
f 538/2/5 529/2/5 537/2/5
f 539/2/5 534/2/5 533/2/5
f 539/2/5 533/2/5 532/2/5
f 540/2/5 534/2/5 539/2/5
f 541/2/5 534/2/5 540/2/5
f 542/2/5 537/2/5 536/2/5
f 542/2/5 536/2/5 535/2/5
f 543/2/5 537/2/5 542/2/5
f 544/2/5 537/2/5 543/2/5
f 545/2/5 541/2/5 540/2/5
f 545/2/5 543/2/5 542/2/5
f 545/2/5 542/2/5 541/2/5
f 546/2/5 543/2/5 545/2/5
f 547/2/5 543/2/5 546/2/5
f 548/2/5 543/2/5 547/2/5
f 549/5/5 547/5/5 546/5/5
f 550/5/5 547/5/5 549/5/5
f 551/5/5 547/5/5 550/5/5
f 552/5/5 547/5/5 551/5/5
f 553/5/5 551/5/5 550/5/5
f 554/5/5 551/5/5 553/5/5
f 555/4/5 554/4/5 553/4/5
f 556/4/5 554/4/5 555/4/5
f 559/1/5 558/1/5 557/1/5
f 560/1/5 558/1/5 559/1/5
f 561/1/5 559/1/5 557/1/5
f 562/1/5 558/1/5 560/1/5
f 563/1/5 561/1/5 557/1/5
f 563/1/5 562/1/5 561/1/5
f 564/1/5 558/1/5 562/1/5
f 564/1/5 562/1/5 563/1/5
f 565/1/6 566/1/6 567/1/6
f 567/1/6 566/1/6 568/1/6
f 565/1/6 567/1/6 569/1/6
f 568/1/6 566/1/6 570/1/6
f 565/1/6 569/1/6 571/1/6
f 569/1/6 570/1/6 571/1/6
f 570/1/6 566/1/6 572/1/6
f 571/1/6 570/1/6 572/1/6
f 573/4/6 574/4/6 575/4/6
f 575/4/6 574/4/6 576/4/6
f 575/5/6 576/5/6 578/5/6
f 578/5/6 576/5/6 579/5/6
f 578/5/6 579/5/6 582/5/6
f 579/5/6 580/5/6 582/5/6
f 577/5/6 578/5/6 582/5/6
f 582/5/6 580/5/6 583/5/6
f 581/2/6 582/2/6 586/2/6
f 583/2/6 584/2/6 586/2/6
f 582/2/6 583/2/6 586/2/6
f 586/2/6 584/2/6 587/2/6
f 587/2/6 584/2/6 588/2/6
f 588/2/6 584/2/6 589/2/6
f 585/2/6 586/2/6 592/2/6
f 586/2/6 587/2/6 592/2/6
f 592/2/6 587/2/6 593/2/6
f 593/2/6 587/2/6 594/2/6
f 588/2/6 589/2/6 595/2/6
f 589/2/6 590/2/6 595/2/6
f 595/2/6 590/2/6 596/2/6
f 596/2/6 590/2/6 597/2/6
f 592/2/6 593/2/6 600/2/6
f 591/2/6 592/2/6 600/2/6
f 600/2/6 593/2/6 601/2/6
f 601/2/6 593/2/6 602/2/6
f 597/2/6 598/2/6 603/2/6
f 596/2/6 597/2/6 603/2/6
f 603/2/6 598/2/6 604/2/6
f 604/2/6 598/2/6 605/2/6
f 599/5/6 600/5/6 609/5/6
f 605/5/6 606/5/6 610/5/6
f 607/4/6 608/4/6 613/4/6
f 608/5/6 609/5/6 614/5/6
f 613/4/6 608/4/6 614/4/6
f 609/5/6 600/5/6 615/5/6
f 614/5/6 609/5/6 615/5/6
f 605/5/6 610/5/6 616/5/6
f 610/5/6 611/5/6 616/5/6
f 611/4/6 612/4/6 617/4/6
f 616/5/6 611/5/6 617/5/6
f 617/4/6 612/4/6 618/4/6
f 615/5/6 600/5/6 619/5/6
f 600/2/6 601/2/6 620/2/6
f 619/5/6 600/5/6 620/5/6
f 620/2/6 601/2/6 621/2/6
f 604/2/6 605/2/6 624/2/6
f 605/5/6 616/5/6 625/5/6
f 624/2/6 605/2/6 625/2/6
f 625/5/6 616/5/6 626/5/6
f 621/2/6 622/2/6 627/2/6
f 620/2/6 621/2/6 627/2/6
f 627/2/6 622/2/6 628/2/6
f 628/2/6 622/2/6 629/2/6
f 623/2/6 624/2/6 632/2/6
f 624/2/6 625/2/6 632/2/6
f 632/2/6 625/2/6 633/2/6
f 633/2/6 625/2/6 634/2/6
f 629/2/6 630/2/6 635/2/6
f 628/2/6 629/2/6 635/2/6
f 635/2/6 630/2/6 636/2/6
f 636/2/6 630/2/6 637/2/6
f 632/2/6 633/2/6 638/2/6
f 631/2/6 632/2/6 638/2/6
f 638/2/6 633/2/6 639/2/6
f 639/2/6 633/2/6 640/2/6
f 636/2/6 637/2/6 641/2/6
f 638/2/6 639/2/6 641/2/6
f 637/2/6 638/2/6 641/2/6
f 641/2/6 639/2/6 642/2/6
f 642/2/6 639/2/6 643/2/6
f 643/2/6 639/2/6 644/2/6
f 642/5/6 643/5/6 645/5/6
f 645/5/6 643/5/6 646/5/6
f 646/5/6 643/5/6 647/5/6
f 647/5/6 643/5/6 648/5/6
f 646/5/6 647/5/6 649/5/6
f 649/5/6 647/5/6 650/5/6
f 649/4/6 650/4/6 651/4/6
f 651/4/6 650/4/6 652/4/6
f 653/3/6 654/3/6 656/3/6
f 656/3/6 654/3/6 657/3/6
f 655/3/6 656/3/6 660/3/6
f 657/3/6 658/3/6 660/3/6
f 656/3/6 657/3/6 660/3/6
f 660/3/6 658/3/6 661/3/6
f 659/3/6 660/3/6 663/3/6
f 661/3/6 662/3/6 663/3/6
f 660/3/6 661/3/6 663/3/6
f 663/3/6 662/3/6 664/3/6
f 659/3/6 663/3/6 665/3/6
f 664/3/6 662/3/6 666/3/6
f 659/3/6 665/3/6 667/3/6
f 665/3/6 666/3/6 667/3/6
f 667/3/6 666/3/6 668/3/6
f 666/3/6 662/3/6 669/3/6
f 668/3/6 666/3/6 669/3/6
f 669/3/6 662/3/6 670/3/6
f 668/3/6 669/3/6 671/3/6
f 671/3/6 669/3/6 672/3/6
f 672/3/6 669/3/6 673/3/6
f 673/3/6 669/3/6 674/3/6
f 672/3/6 673/3/6 675/3/6
f 675/3/6 673/3/6 676/3/6
f 677/1/6 678/1/6 679/1/6
f 679/1/6 678/1/6 680/1/6
