# MagicaVoxel @ Ephtracy

# group
o 

# material
mtllib forceItem.mtl
usemtl palette

# normals
vn -1 0 0
vn 1 0 0
vn 0 0 1
vn 0 0 -1
vn 0 -1 0
vn 0 1 0

# texcoords
vt 0.0605469 0.5
vt 0.0878906 0.5

# verts
v -0.6 0 0.6
v -0.6 0 -0.6
v -0.6 0.1 0.7
v -0.6 0.1 0.6
v -0.6 0.1 0.5
v -0.6 0.1 -0.5
v -0.6 0.1 -0.6
v -0.6 0.1 -0.7
v -0.6 0.2 0.6
v -0.6 0.2 0.5
v -0.6 0.2 -0.5
v -0.6 0.2 -0.6
v -0.6 1.2 0.6
v -0.6 1.2 0.5
v -0.6 1.2 -0.5
v -0.6 1.2 -0.6
v -0.6 1.3 0.7
v -0.6 1.3 0.6
v -0.6 1.3 0.5
v -0.6 1.3 -0.5
v -0.6 1.3 -0.6
v -0.6 1.3 -0.7
v -0.6 1.4 0.6
v -0.6 1.4 -0.6
v -0.4 0.1 0.6
v -0.4 0.1 0.5
v -0.4 0.1 -0.5
v -0.4 0.1 -0.6
v -0.4 0.2 0.6
v -0.4 0.2 0.5
v -0.4 0.2 -0.5
v -0.4 0.2 -0.6
v -0.4 0.4 0.7
v -0.4 0.4 0.6
v -0.4 0.4 0.5
v -0.4 0.4 -0.5
v -0.4 0.4 -0.6
v -0.4 0.4 -0.7
v -0.4 1 0.7
v -0.4 1 0.6
v -0.4 1 0.5
v -0.4 1 -0.5
v -0.4 1 -0.6
v -0.4 1 -0.7
v -0.4 1.2 0.6
v -0.4 1.2 0.5
v -0.4 1.2 -0.5
v -0.4 1.2 -0.6
v -0.4 1.3 0.6
v -0.4 1.3 0.5
v -0.4 1.3 -0.5
v -0.4 1.3 -0.6
v -0.1 0.4 0.7
v -0.1 0.4 0.6
v -0.1 0.4 0.5
v -0.1 0.4 -0.5
v -0.1 0.4 -0.6
v -0.1 0.4 -0.7
v -0.1 1 0.7
v -0.1 1 0.6
v -0.1 1 0.5
v -0.1 1 -0.5
v -0.1 1 -0.6
v -0.1 1 -0.7
v 0.2 0.4 0.7
v 0.2 0.4 0.6
v 0.2 0.4 0.5
v 0.2 0.4 -0.5
v 0.2 0.4 -0.6
v 0.2 0.4 -0.7
v 0.2 1 0.7
v 0.2 1 0.6
v 0.2 1 0.5
v 0.2 1 -0.5
v 0.2 1 -0.6
v 0.2 1 -0.7
v 0.4 0.1 0.5
v 0.4 0.1 -0.5
v 0.4 0.2 0.5
v 0.4 0.2 -0.5
v 0.4 1.2 0.5
v 0.4 1.2 -0.5
v 0.4 1.3 0.5
v 0.4 1.3 -0.5
v 0.5 0 0.6
v 0.5 0 -0.6
v 0.5 0.1 0.7
v 0.5 0.1 0.6
v 0.5 0.1 0.5
v 0.5 0.1 -0.5
v 0.5 0.1 -0.6
v 0.5 0.1 -0.7
v 0.5 0.2 0.6
v 0.5 0.2 -0.6
v 0.5 1.2 0.6
v 0.5 1.2 -0.6
v 0.5 1.3 0.7
v 0.5 1.3 0.6
v 0.5 1.3 0.5
v 0.5 1.3 -0.5
v 0.5 1.3 -0.6
v 0.5 1.3 -0.7
v 0.5 1.4 0.6
v 0.5 1.4 -0.6
v -0.5 0 0.6
v -0.5 0 -0.6
v -0.5 0.1 0.7
v -0.5 0.1 0.6
v -0.5 0.1 0.5
v -0.5 0.1 -0.5
v -0.5 0.1 -0.6
v -0.5 0.1 -0.7
v -0.5 0.2 0.6
v -0.5 0.2 -0.6
v -0.5 1.2 0.6
v -0.5 1.2 -0.6
v -0.5 1.3 0.7
v -0.5 1.3 0.6
v -0.5 1.3 0.5
v -0.5 1.3 -0.5
v -0.5 1.3 -0.6
v -0.5 1.3 -0.7
v -0.5 1.4 0.6
v -0.5 1.4 -0.6
v -0.4 0.1 0.5
v -0.4 0.1 -0.5
v -0.4 0.2 0.5
v -0.4 0.2 -0.5
v -0.4 1.2 0.5
v -0.4 1.2 -0.5
v -0.4 1.3 0.5
v -0.4 1.3 -0.5
v -0.2 0.4 0.7
v -0.2 0.4 0.6
v -0.2 0.4 0.5
v -0.2 0.4 -0.5
v -0.2 0.4 -0.6
v -0.2 0.4 -0.7
v -0.2 1 0.7
v -0.2 1 0.6
v -0.2 1 0.5
v -0.2 1 -0.5
v -0.2 1 -0.6
v -0.2 1 -0.7
v 0.1 0.4 0.7
v 0.1 0.4 0.6
v 0.1 0.4 0.5
v 0.1 0.4 -0.5
v 0.1 0.4 -0.6
v 0.1 0.4 -0.7
v 0.1 1 0.7
v 0.1 1 0.6
v 0.1 1 0.5
v 0.1 1 -0.5
v 0.1 1 -0.6
v 0.1 1 -0.7
v 0.4 0.1 0.6
v 0.4 0.1 0.5
v 0.4 0.1 -0.5
v 0.4 0.1 -0.6
v 0.4 0.2 0.6
v 0.4 0.2 0.5
v 0.4 0.2 -0.5
v 0.4 0.2 -0.6
v 0.4 0.4 0.7
v 0.4 0.4 0.6
v 0.4 0.4 0.5
v 0.4 0.4 -0.5
v 0.4 0.4 -0.6
v 0.4 0.4 -0.7
v 0.4 1 0.7
v 0.4 1 0.6
v 0.4 1 0.5
v 0.4 1 -0.5
v 0.4 1 -0.6
v 0.4 1 -0.7
v 0.4 1.2 0.6
v 0.4 1.2 0.5
v 0.4 1.2 -0.5
v 0.4 1.2 -0.6
v 0.4 1.3 0.6
v 0.4 1.3 0.5
v 0.4 1.3 -0.5
v 0.4 1.3 -0.6
v 0.6 0 0.6
v 0.6 0 -0.6
v 0.6 0.1 0.7
v 0.6 0.1 0.6
v 0.6 0.1 0.5
v 0.6 0.1 -0.5
v 0.6 0.1 -0.6
v 0.6 0.1 -0.7
v 0.6 0.2 0.6
v 0.6 0.2 0.5
v 0.6 0.2 -0.5
v 0.6 0.2 -0.6
v 0.6 1.2 0.6
v 0.6 1.2 0.5
v 0.6 1.2 -0.5
v 0.6 1.2 -0.6
v 0.6 1.3 0.7
v 0.6 1.3 0.6
v 0.6 1.3 0.5
v 0.6 1.3 -0.5
v 0.6 1.3 -0.6
v 0.6 1.3 -0.7
v 0.6 1.4 0.6
v 0.6 1.4 -0.6
v -0.6 0.1 0.7
v -0.6 1.3 0.7
v -0.5 0.1 0.7
v -0.5 1.3 0.7
v -0.4 0.4 0.7
v -0.4 1 0.7
v -0.2 0.4 0.7
v -0.2 1 0.7
v -0.1 0.4 0.7
v -0.1 1 0.7
v 0.1 0.4 0.7
v 0.1 1 0.7
v 0.2 0.4 0.7
v 0.2 1 0.7
v 0.4 0.4 0.7
v 0.4 1 0.7
v 0.5 0.1 0.7
v 0.5 1.3 0.7
v 0.6 0.1 0.7
v 0.6 1.3 0.7
v -0.6 0 0.6
v -0.6 0.1 0.6
v -0.6 1.3 0.6
v -0.6 1.4 0.6
v -0.5 0 0.6
v -0.5 0.1 0.6
v -0.5 0.2 0.6
v -0.5 1.2 0.6
v -0.5 1.3 0.6
v -0.5 1.4 0.6
v -0.4 0.1 0.6
v -0.4 0.2 0.6
v -0.4 0.4 0.6
v -0.4 1 0.6
v -0.4 1.2 0.6
v -0.4 1.3 0.6
v -0.2 0.4 0.6
v -0.2 1 0.6
v -0.1 0.4 0.6
v -0.1 1 0.6
v 0.1 0.4 0.6
v 0.1 1 0.6
v 0.2 0.4 0.6
v 0.2 1 0.6
v 0.4 0.1 0.6
v 0.4 0.2 0.6
v 0.4 0.4 0.6
v 0.4 1 0.6
v 0.4 1.2 0.6
v 0.4 1.3 0.6
v 0.5 0 0.6
v 0.5 0.1 0.6
v 0.5 0.2 0.6
v 0.5 1.2 0.6
v 0.5 1.3 0.6
v 0.5 1.4 0.6
v 0.6 0 0.6
v 0.6 0.1 0.6
v 0.6 1.3 0.6
v 0.6 1.4 0.6
v -0.6 0.1 0.5
v -0.6 0.2 0.5
v -0.6 1.2 0.5
v -0.6 1.3 0.5
v -0.5 0.1 0.5
v -0.5 1.3 0.5
v -0.4 0.1 0.5
v -0.4 0.2 0.5
v -0.4 1.2 0.5
v -0.4 1.3 0.5
v 0.4 0.1 0.5
v 0.4 0.2 0.5
v 0.4 1.2 0.5
v 0.4 1.3 0.5
v 0.5 0.1 0.5
v 0.5 1.3 0.5
v 0.6 0.1 0.5
v 0.6 0.2 0.5
v 0.6 1.2 0.5
v 0.6 1.3 0.5
v -0.6 0.2 -0.5
v -0.6 1.2 -0.5
v -0.4 0.1 -0.5
v -0.4 0.2 -0.5
v -0.4 0.4 -0.5
v -0.4 1 -0.5
v -0.4 1.2 -0.5
v -0.4 1.3 -0.5
v -0.2 0.4 -0.5
v -0.2 1 -0.5
v -0.1 0.4 -0.5
v -0.1 1 -0.5
v 0.1 0.4 -0.5
v 0.1 1 -0.5
v 0.2 0.4 -0.5
v 0.2 1 -0.5
v 0.4 0.1 -0.5
v 0.4 0.2 -0.5
v 0.4 0.4 -0.5
v 0.4 1 -0.5
v 0.4 1.2 -0.5
v 0.4 1.3 -0.5
v 0.6 0.2 -0.5
v 0.6 1.2 -0.5
v -0.6 0.1 -0.6
v -0.6 0.2 -0.6
v -0.6 1.2 -0.6
v -0.6 1.3 -0.6
v -0.5 0.1 -0.6
v -0.5 0.2 -0.6
v -0.5 1.2 -0.6
v -0.5 1.3 -0.6
v 0.5 0.1 -0.6
v 0.5 0.2 -0.6
v 0.5 1.2 -0.6
v 0.5 1.3 -0.6
v 0.6 0.1 -0.6
v 0.6 0.2 -0.6
v 0.6 1.2 -0.6
v 0.6 1.3 -0.6
v -0.6 0.1 0.6
v -0.6 0.2 0.6
v -0.6 1.2 0.6
v -0.6 1.3 0.6
v -0.5 0.1 0.6
v -0.5 0.2 0.6
v -0.5 1.2 0.6
v -0.5 1.3 0.6
v 0.5 0.1 0.6
v 0.5 0.2 0.6
v 0.5 1.2 0.6
v 0.5 1.3 0.6
v 0.6 0.1 0.6
v 0.6 0.2 0.6
v 0.6 1.2 0.6
v 0.6 1.3 0.6
v -0.6 0.2 0.5
v -0.6 1.2 0.5
v -0.4 0.1 0.5
v -0.4 0.2 0.5
v -0.4 0.4 0.5
v -0.4 1 0.5
v -0.4 1.2 0.5
v -0.4 1.3 0.5
v -0.2 0.4 0.5
v -0.2 1 0.5
v -0.1 0.4 0.5
v -0.1 1 0.5
v 0.1 0.4 0.5
v 0.1 1 0.5
v 0.2 0.4 0.5
v 0.2 1 0.5
v 0.4 0.1 0.5
v 0.4 0.2 0.5
v 0.4 0.4 0.5
v 0.4 1 0.5
v 0.4 1.2 0.5
v 0.4 1.3 0.5
v 0.6 0.2 0.5
v 0.6 1.2 0.5
v -0.6 0.1 -0.5
v -0.6 0.2 -0.5
v -0.6 1.2 -0.5
v -0.6 1.3 -0.5
v -0.5 0.1 -0.5
v -0.5 1.3 -0.5
v -0.4 0.1 -0.5
v -0.4 0.2 -0.5
v -0.4 1.2 -0.5
v -0.4 1.3 -0.5
v 0.4 0.1 -0.5
v 0.4 0.2 -0.5
v 0.4 1.2 -0.5
v 0.4 1.3 -0.5
v 0.5 0.1 -0.5
v 0.5 1.3 -0.5
v 0.6 0.1 -0.5
v 0.6 0.2 -0.5
v 0.6 1.2 -0.5
v 0.6 1.3 -0.5
v -0.6 0 -0.6
v -0.6 0.1 -0.6
v -0.6 1.3 -0.6
v -0.6 1.4 -0.6
v -0.5 0 -0.6
v -0.5 0.1 -0.6
v -0.5 0.2 -0.6
v -0.5 1.2 -0.6
v -0.5 1.3 -0.6
v -0.5 1.4 -0.6
v -0.4 0.1 -0.6
v -0.4 0.2 -0.6
v -0.4 0.4 -0.6
v -0.4 1 -0.6
v -0.4 1.2 -0.6
v -0.4 1.3 -0.6
v -0.2 0.4 -0.6
v -0.2 1 -0.6
v -0.1 0.4 -0.6
v -0.1 1 -0.6
v 0.1 0.4 -0.6
v 0.1 1 -0.6
v 0.2 0.4 -0.6
v 0.2 1 -0.6
v 0.4 0.1 -0.6
v 0.4 0.2 -0.6
v 0.4 0.4 -0.6
v 0.4 1 -0.6
v 0.4 1.2 -0.6
v 0.4 1.3 -0.6
v 0.5 0 -0.6
v 0.5 0.1 -0.6
v 0.5 0.2 -0.6
v 0.5 1.2 -0.6
v 0.5 1.3 -0.6
v 0.5 1.4 -0.6
v 0.6 0 -0.6
v 0.6 0.1 -0.6
v 0.6 1.3 -0.6
v 0.6 1.4 -0.6
v -0.6 0.1 -0.7
v -0.6 1.3 -0.7
v -0.5 0.1 -0.7
v -0.5 1.3 -0.7
v -0.4 0.4 -0.7
v -0.4 1 -0.7
v -0.2 0.4 -0.7
v -0.2 1 -0.7
v -0.1 0.4 -0.7
v -0.1 1 -0.7
v 0.1 0.4 -0.7
v 0.1 1 -0.7
v 0.2 0.4 -0.7
v 0.2 1 -0.7
v 0.4 0.4 -0.7
v 0.4 1 -0.7
v 0.5 0.1 -0.7
v 0.5 1.3 -0.7
v 0.6 0.1 -0.7
v 0.6 1.3 -0.7
v -0.6 0 0.6
v -0.5 0 0.6
v 0.5 0 0.6
v 0.6 0 0.6
v -0.6 0 -0.6
v -0.5 0 -0.6
v 0.5 0 -0.6
v 0.6 0 -0.6
v -0.6 0.1 0.7
v -0.5 0.1 0.7
v 0.5 0.1 0.7
v 0.6 0.1 0.7
v -0.6 0.1 0.6
v -0.5 0.1 0.6
v -0.4 0.1 0.6
v 0.4 0.1 0.6
v 0.5 0.1 0.6
v 0.6 0.1 0.6
v -0.5 0.1 0.5
v -0.4 0.1 0.5
v 0.4 0.1 0.5
v 0.5 0.1 0.5
v -0.5 0.1 -0.5
v -0.4 0.1 -0.5
v 0.4 0.1 -0.5
v 0.5 0.1 -0.5
v -0.6 0.1 -0.6
v -0.5 0.1 -0.6
v -0.4 0.1 -0.6
v 0.4 0.1 -0.6
v 0.5 0.1 -0.6
v 0.6 0.1 -0.6
v -0.6 0.1 -0.7
v -0.5 0.1 -0.7
v 0.5 0.1 -0.7
v 0.6 0.1 -0.7
v -0.6 0.2 0.6
v -0.5 0.2 0.6
v -0.4 0.2 0.6
v 0.4 0.2 0.6
v 0.5 0.2 0.6
v 0.6 0.2 0.6
v -0.6 0.2 0.5
v -0.4 0.2 0.5
v 0.4 0.2 0.5
v 0.6 0.2 0.5
v -0.6 0.2 -0.5
v -0.4 0.2 -0.5
v 0.4 0.2 -0.5
v 0.6 0.2 -0.5
v -0.6 0.2 -0.6
v -0.5 0.2 -0.6
v -0.4 0.2 -0.6
v 0.4 0.2 -0.6
v 0.5 0.2 -0.6
v 0.6 0.2 -0.6
v -0.4 0.4 0.7
v -0.2 0.4 0.7
v -0.1 0.4 0.7
v 0.1 0.4 0.7
v 0.2 0.4 0.7
v 0.4 0.4 0.7
v -0.4 0.4 0.6
v -0.2 0.4 0.6
v -0.1 0.4 0.6
v 0.1 0.4 0.6
v 0.2 0.4 0.6
v 0.4 0.4 0.6
v -0.4 0.4 0.5
v -0.2 0.4 0.5
v -0.1 0.4 0.5
v 0.1 0.4 0.5
v 0.2 0.4 0.5
v 0.4 0.4 0.5
v -0.4 0.4 -0.5
v -0.2 0.4 -0.5
v -0.1 0.4 -0.5
v 0.1 0.4 -0.5
v 0.2 0.4 -0.5
v 0.4 0.4 -0.5
v -0.4 0.4 -0.6
v -0.2 0.4 -0.6
v -0.1 0.4 -0.6
v 0.1 0.4 -0.6
v 0.2 0.4 -0.6
v 0.4 0.4 -0.6
v -0.4 0.4 -0.7
v -0.2 0.4 -0.7
v -0.1 0.4 -0.7
v 0.1 0.4 -0.7
v 0.2 0.4 -0.7
v 0.4 0.4 -0.7
v -0.6 1.2 0.5
v -0.4 1.2 0.5
v 0.4 1.2 0.5
v 0.6 1.2 0.5
v -0.6 1.2 -0.5
v -0.4 1.2 -0.5
v 0.4 1.2 -0.5
v 0.6 1.2 -0.5
v -0.6 1.3 0.6
v -0.5 1.3 0.6
v 0.5 1.3 0.6
v 0.6 1.3 0.6
v -0.6 1.3 0.5
v -0.5 1.3 0.5
v 0.5 1.3 0.5
v 0.6 1.3 0.5
v -0.6 1.3 -0.5
v -0.5 1.3 -0.5
v 0.5 1.3 -0.5
v 0.6 1.3 -0.5
v -0.6 1.3 -0.6
v -0.5 1.3 -0.6
v 0.5 1.3 -0.6
v 0.6 1.3 -0.6
v -0.6 0.1 0.6
v -0.5 0.1 0.6
v 0.5 0.1 0.6
v 0.6 0.1 0.6
v -0.6 0.1 0.5
v -0.5 0.1 0.5
v 0.5 0.1 0.5
v 0.6 0.1 0.5
v -0.6 0.1 -0.5
v -0.5 0.1 -0.5
v 0.5 0.1 -0.5
v 0.6 0.1 -0.5
v -0.6 0.1 -0.6
v -0.5 0.1 -0.6
v 0.5 0.1 -0.6
v 0.6 0.1 -0.6
v -0.6 0.2 0.5
v -0.4 0.2 0.5
v 0.4 0.2 0.5
v 0.6 0.2 0.5
v -0.6 0.2 -0.5
v -0.4 0.2 -0.5
v 0.4 0.2 -0.5
v 0.6 0.2 -0.5
v -0.4 1 0.7
v -0.2 1 0.7
v -0.1 1 0.7
v 0.1 1 0.7
v 0.2 1 0.7
v 0.4 1 0.7
v -0.4 1 0.6
v -0.2 1 0.6
v -0.1 1 0.6
v 0.1 1 0.6
v 0.2 1 0.6
v 0.4 1 0.6
v -0.4 1 0.5
v -0.2 1 0.5
v -0.1 1 0.5
v 0.1 1 0.5
v 0.2 1 0.5
v 0.4 1 0.5
v -0.4 1 -0.5
v -0.2 1 -0.5
v -0.1 1 -0.5
v 0.1 1 -0.5
v 0.2 1 -0.5
v 0.4 1 -0.5
v -0.4 1 -0.6
v -0.2 1 -0.6
v -0.1 1 -0.6
v 0.1 1 -0.6
v 0.2 1 -0.6
v 0.4 1 -0.6
v -0.4 1 -0.7
v -0.2 1 -0.7
v -0.1 1 -0.7
v 0.1 1 -0.7
v 0.2 1 -0.7
v 0.4 1 -0.7
v -0.6 1.2 0.6
v -0.5 1.2 0.6
v -0.4 1.2 0.6
v 0.4 1.2 0.6
v 0.5 1.2 0.6
v 0.6 1.2 0.6
v -0.6 1.2 0.5
v -0.4 1.2 0.5
v 0.4 1.2 0.5
v 0.6 1.2 0.5
v -0.6 1.2 -0.5
v -0.4 1.2 -0.5
v 0.4 1.2 -0.5
v 0.6 1.2 -0.5
v -0.6 1.2 -0.6
v -0.5 1.2 -0.6
v -0.4 1.2 -0.6
v 0.4 1.2 -0.6
v 0.5 1.2 -0.6
v 0.6 1.2 -0.6
v -0.6 1.3 0.7
v -0.5 1.3 0.7
v 0.5 1.3 0.7
v 0.6 1.3 0.7
v -0.6 1.3 0.6
v -0.5 1.3 0.6
v -0.4 1.3 0.6
v 0.4 1.3 0.6
v 0.5 1.3 0.6
v 0.6 1.3 0.6
v -0.5 1.3 0.5
v -0.4 1.3 0.5
v 0.4 1.3 0.5
v 0.5 1.3 0.5
v -0.5 1.3 -0.5
v -0.4 1.3 -0.5
v 0.4 1.3 -0.5
v 0.5 1.3 -0.5
v -0.6 1.3 -0.6
v -0.5 1.3 -0.6
v -0.4 1.3 -0.6
v 0.4 1.3 -0.6
v 0.5 1.3 -0.6
v 0.6 1.3 -0.6
v -0.6 1.3 -0.7
v -0.5 1.3 -0.7
v 0.5 1.3 -0.7
v 0.6 1.3 -0.7
v -0.6 1.4 0.6
v -0.5 1.4 0.6
v 0.5 1.4 0.6
v 0.6 1.4 0.6
v -0.6 1.4 -0.6
v -0.5 1.4 -0.6
v 0.5 1.4 -0.6
v 0.6 1.4 -0.6

# faces
f 4/1/1 2/1/1 1/1/1
f 5/1/1 2/1/1 4/1/1
f 6/1/1 2/1/1 5/1/1
f 7/1/1 2/1/1 6/1/1
f 9/1/1 4/1/1 3/1/1
f 10/2/1 6/2/1 5/2/1
f 11/2/1 6/2/1 10/2/1
f 12/1/1 8/1/1 7/1/1
f 13/1/1 9/1/1 3/1/1
f 13/2/1 10/2/1 9/2/1
f 14/2/1 10/2/1 13/2/1
f 15/2/1 12/2/1 11/2/1
f 16/1/1 8/1/1 12/1/1
f 16/2/1 12/2/1 15/2/1
f 17/1/1 13/1/1 3/1/1
f 18/1/1 13/1/1 17/1/1
f 19/2/1 15/2/1 14/2/1
f 20/2/1 15/2/1 19/2/1
f 21/1/1 8/1/1 16/1/1
f 22/1/1 8/1/1 21/1/1
f 23/1/1 20/1/1 19/1/1
f 23/1/1 21/1/1 20/1/1
f 23/1/1 19/1/1 18/1/1
f 24/1/1 21/1/1 23/1/1
f 29/2/1 26/2/1 25/2/1
f 30/2/1 26/2/1 29/2/1
f 31/2/1 28/2/1 27/2/1
f 32/2/1 28/2/1 31/2/1
f 39/1/1 34/1/1 33/1/1
f 40/1/1 34/1/1 39/1/1
f 41/1/1 36/1/1 35/1/1
f 42/1/1 36/1/1 41/1/1
f 43/1/1 38/1/1 37/1/1
f 44/1/1 38/1/1 43/1/1
f 49/2/1 46/2/1 45/2/1
f 50/2/1 46/2/1 49/2/1
f 51/2/1 48/2/1 47/2/1
f 52/2/1 48/2/1 51/2/1
f 59/1/1 54/1/1 53/1/1
f 60/1/1 54/1/1 59/1/1
f 61/1/1 56/1/1 55/1/1
f 62/1/1 56/1/1 61/1/1
f 63/1/1 58/1/1 57/1/1
f 64/1/1 58/1/1 63/1/1
f 71/1/1 66/1/1 65/1/1
f 72/1/1 66/1/1 71/1/1
f 73/1/1 68/1/1 67/1/1
f 74/1/1 68/1/1 73/1/1
f 75/1/1 70/1/1 69/1/1
f 76/1/1 70/1/1 75/1/1
f 79/2/1 78/2/1 77/2/1
f 80/2/1 78/2/1 79/2/1
f 83/2/1 82/2/1 81/2/1
f 84/2/1 82/2/1 83/2/1
f 88/1/1 86/1/1 85/1/1
f 89/1/1 86/1/1 88/1/1
f 90/1/1 86/1/1 89/1/1
f 91/1/1 86/1/1 90/1/1
f 93/1/1 88/1/1 87/1/1
f 94/1/1 92/1/1 91/1/1
f 95/1/1 93/1/1 87/1/1
f 96/1/1 92/1/1 94/1/1
f 97/1/1 95/1/1 87/1/1
f 98/1/1 95/1/1 97/1/1
f 101/1/1 92/1/1 96/1/1
f 102/1/1 92/1/1 101/1/1
f 103/1/1 100/1/1 99/1/1
f 103/1/1 101/1/1 100/1/1
f 103/1/1 99/1/1 98/1/1
f 104/1/1 101/1/1 103/1/1
f 105/1/2 106/1/2 108/1/2
f 108/1/2 106/1/2 109/1/2
f 109/1/2 106/1/2 110/1/2
f 110/1/2 106/1/2 111/1/2
f 107/1/2 108/1/2 113/1/2
f 111/1/2 112/1/2 114/1/2
f 107/1/2 113/1/2 115/1/2
f 114/1/2 112/1/2 116/1/2
f 107/1/2 115/1/2 117/1/2
f 117/1/2 115/1/2 118/1/2
f 116/1/2 112/1/2 121/1/2
f 121/1/2 112/1/2 122/1/2
f 119/1/2 120/1/2 123/1/2
f 120/1/2 121/1/2 123/1/2
f 118/1/2 119/1/2 123/1/2
f 123/1/2 121/1/2 124/1/2
f 125/2/2 126/2/2 127/2/2
f 127/2/2 126/2/2 128/2/2
f 129/2/2 130/2/2 131/2/2
f 131/2/2 130/2/2 132/2/2
f 133/1/2 134/1/2 139/1/2
f 139/1/2 134/1/2 140/1/2
f 135/1/2 136/1/2 141/1/2
f 141/1/2 136/1/2 142/1/2
f 137/1/2 138/1/2 143/1/2
f 143/1/2 138/1/2 144/1/2
f 145/1/2 146/1/2 151/1/2
f 151/1/2 146/1/2 152/1/2
f 147/1/2 148/1/2 153/1/2
f 153/1/2 148/1/2 154/1/2
f 149/1/2 150/1/2 155/1/2
f 155/1/2 150/1/2 156/1/2
f 157/2/2 158/2/2 161/2/2
f 161/2/2 158/2/2 162/2/2
f 159/2/2 160/2/2 163/2/2
f 163/2/2 160/2/2 164/2/2
f 165/1/2 166/1/2 171/1/2
f 171/1/2 166/1/2 172/1/2
f 167/1/2 168/1/2 173/1/2
f 173/1/2 168/1/2 174/1/2
f 169/1/2 170/1/2 175/1/2
f 175/1/2 170/1/2 176/1/2
f 177/2/2 178/2/2 181/2/2
f 181/2/2 178/2/2 182/2/2
f 179/2/2 180/2/2 183/2/2
f 183/2/2 180/2/2 184/2/2
f 185/1/2 186/1/2 188/1/2
f 188/1/2 186/1/2 189/1/2
f 189/1/2 186/1/2 190/1/2
f 190/1/2 186/1/2 191/1/2
f 187/1/2 188/1/2 193/1/2
f 189/2/2 190/2/2 194/2/2
f 194/2/2 190/2/2 195/2/2
f 191/1/2 192/1/2 196/1/2
f 187/1/2 193/1/2 197/1/2
f 193/2/2 194/2/2 197/2/2
f 197/2/2 194/2/2 198/2/2
f 195/2/2 196/2/2 199/2/2
f 196/1/2 192/1/2 200/1/2
f 199/2/2 196/2/2 200/2/2
f 187/1/2 197/1/2 201/1/2
f 201/1/2 197/1/2 202/1/2
f 198/2/2 199/2/2 203/2/2
f 203/2/2 199/2/2 204/2/2
f 200/1/2 192/1/2 205/1/2
f 205/1/2 192/1/2 206/1/2
f 203/1/2 204/1/2 207/1/2
f 204/1/2 205/1/2 207/1/2
f 202/1/2 203/1/2 207/1/2
f 207/1/2 205/1/2 208/1/2
f 211/1/3 210/1/3 209/1/3
f 212/1/3 210/1/3 211/1/3
f 215/1/3 214/1/3 213/1/3
f 216/1/3 214/1/3 215/1/3
f 219/1/3 218/1/3 217/1/3
f 220/1/3 218/1/3 219/1/3
f 223/1/3 222/1/3 221/1/3
f 224/1/3 222/1/3 223/1/3
f 227/1/3 226/1/3 225/1/3
f 228/1/3 226/1/3 227/1/3
f 233/1/3 230/1/3 229/1/3
f 234/1/3 230/1/3 233/1/3
f 237/1/3 232/1/3 231/1/3
f 238/1/3 232/1/3 237/1/3
f 240/2/3 236/2/3 235/2/3
f 241/2/3 236/2/3 240/2/3
f 242/2/3 236/2/3 241/2/3
f 243/2/3 236/2/3 242/2/3
f 245/2/3 240/2/3 239/2/3
f 245/2/3 241/2/3 240/2/3
f 246/2/3 244/2/3 243/2/3
f 246/2/3 243/2/3 242/2/3
f 247/2/3 245/2/3 239/2/3
f 247/2/3 246/2/3 245/2/3
f 248/2/3 244/2/3 246/2/3
f 248/2/3 246/2/3 247/2/3
f 249/2/3 247/2/3 239/2/3
f 250/2/3 244/2/3 248/2/3
f 251/2/3 249/2/3 239/2/3
f 251/2/3 250/2/3 249/2/3
f 252/2/3 244/2/3 250/2/3
f 252/2/3 250/2/3 251/2/3
f 253/2/3 251/2/3 239/2/3
f 254/2/3 251/2/3 253/2/3
f 255/2/3 251/2/3 254/2/3
f 256/2/3 244/2/3 252/2/3
f 257/2/3 244/2/3 256/2/3
f 258/2/3 244/2/3 257/2/3
f 261/2/3 255/2/3 254/2/3
f 261/2/3 256/2/3 255/2/3
f 261/2/3 257/2/3 256/2/3
f 262/2/3 257/2/3 261/2/3
f 265/1/3 260/1/3 259/1/3
f 266/1/3 260/1/3 265/1/3
f 267/1/3 264/1/3 263/1/3
f 268/1/3 264/1/3 267/1/3
f 273/2/3 270/2/3 269/2/3
f 274/2/3 272/2/3 271/2/3
f 275/2/3 270/2/3 273/2/3
f 276/2/3 270/2/3 275/2/3
f 277/2/3 274/2/3 271/2/3
f 278/2/3 274/2/3 277/2/3
f 283/2/3 280/2/3 279/2/3
f 284/2/3 282/2/3 281/2/3
f 285/2/3 280/2/3 283/2/3
f 286/2/3 280/2/3 285/2/3
f 287/2/3 284/2/3 281/2/3
f 288/2/3 284/2/3 287/2/3
f 292/2/3 290/2/3 289/2/3
f 293/2/3 290/2/3 292/2/3
f 294/2/3 290/2/3 293/2/3
f 295/2/3 290/2/3 294/2/3
f 297/2/3 292/2/3 291/2/3
f 297/2/3 293/2/3 292/2/3
f 298/2/3 296/2/3 295/2/3
f 298/2/3 295/2/3 294/2/3
f 299/2/3 297/2/3 291/2/3
f 299/2/3 298/2/3 297/2/3
f 300/2/3 296/2/3 298/2/3
f 300/2/3 298/2/3 299/2/3
f 301/2/3 299/2/3 291/2/3
f 302/2/3 296/2/3 300/2/3
f 303/2/3 301/2/3 291/2/3
f 303/2/3 302/2/3 301/2/3
f 304/2/3 296/2/3 302/2/3
f 304/2/3 302/2/3 303/2/3
f 305/2/3 303/2/3 291/2/3
f 306/2/3 303/2/3 305/2/3
f 307/2/3 303/2/3 306/2/3
f 308/2/3 296/2/3 304/2/3
f 309/2/3 296/2/3 308/2/3
f 310/2/3 296/2/3 309/2/3
f 311/2/3 307/2/3 306/2/3
f 311/2/3 309/2/3 308/2/3
f 311/2/3 308/2/3 307/2/3
f 312/2/3 309/2/3 311/2/3
f 317/1/3 314/1/3 313/1/3
f 318/1/3 314/1/3 317/1/3
f 319/1/3 316/1/3 315/1/3
f 320/1/3 316/1/3 319/1/3
f 325/1/3 322/1/3 321/1/3
f 326/1/3 322/1/3 325/1/3
f 327/1/3 324/1/3 323/1/3
f 328/1/3 324/1/3 327/1/3
f 329/1/4 330/1/4 333/1/4
f 333/1/4 330/1/4 334/1/4
f 331/1/4 332/1/4 335/1/4
f 335/1/4 332/1/4 336/1/4
f 337/1/4 338/1/4 341/1/4
f 341/1/4 338/1/4 342/1/4
f 339/1/4 340/1/4 343/1/4
f 343/1/4 340/1/4 344/1/4
f 345/2/4 346/2/4 348/2/4
f 348/2/4 346/2/4 349/2/4
f 349/2/4 346/2/4 350/2/4
f 350/2/4 346/2/4 351/2/4
f 347/2/4 348/2/4 353/2/4
f 348/2/4 349/2/4 353/2/4
f 351/2/4 352/2/4 354/2/4
f 350/2/4 351/2/4 354/2/4
f 347/2/4 353/2/4 355/2/4
f 353/2/4 354/2/4 355/2/4
f 354/2/4 352/2/4 356/2/4
f 355/2/4 354/2/4 356/2/4
f 347/2/4 355/2/4 357/2/4
f 356/2/4 352/2/4 358/2/4
f 347/2/4 357/2/4 359/2/4
f 357/2/4 358/2/4 359/2/4
f 358/2/4 352/2/4 360/2/4
f 359/2/4 358/2/4 360/2/4
f 347/2/4 359/2/4 361/2/4
f 361/2/4 359/2/4 362/2/4
f 362/2/4 359/2/4 363/2/4
f 360/2/4 352/2/4 364/2/4
f 364/2/4 352/2/4 365/2/4
f 365/2/4 352/2/4 366/2/4
f 362/2/4 363/2/4 367/2/4
f 364/2/4 365/2/4 367/2/4
f 363/2/4 364/2/4 367/2/4
f 367/2/4 365/2/4 368/2/4
f 369/2/4 370/2/4 373/2/4
f 371/2/4 372/2/4 374/2/4
f 373/2/4 370/2/4 375/2/4
f 375/2/4 370/2/4 376/2/4
f 371/2/4 374/2/4 377/2/4
f 377/2/4 374/2/4 378/2/4
f 379/2/4 380/2/4 383/2/4
f 381/2/4 382/2/4 384/2/4
f 383/2/4 380/2/4 385/2/4
f 385/2/4 380/2/4 386/2/4
f 381/2/4 384/2/4 387/2/4
f 387/2/4 384/2/4 388/2/4
f 389/1/4 390/1/4 393/1/4
f 393/1/4 390/1/4 394/1/4
f 391/1/4 392/1/4 397/1/4
f 397/1/4 392/1/4 398/1/4
f 395/2/4 396/2/4 400/2/4
f 400/2/4 396/2/4 401/2/4
f 401/2/4 396/2/4 402/2/4
f 402/2/4 396/2/4 403/2/4
f 399/2/4 400/2/4 405/2/4
f 400/2/4 401/2/4 405/2/4
f 403/2/4 404/2/4 406/2/4
f 402/2/4 403/2/4 406/2/4
f 399/2/4 405/2/4 407/2/4
f 405/2/4 406/2/4 407/2/4
f 406/2/4 404/2/4 408/2/4
f 407/2/4 406/2/4 408/2/4
f 399/2/4 407/2/4 409/2/4
f 408/2/4 404/2/4 410/2/4
f 399/2/4 409/2/4 411/2/4
f 409/2/4 410/2/4 411/2/4
f 410/2/4 404/2/4 412/2/4
f 411/2/4 410/2/4 412/2/4
f 399/2/4 411/2/4 413/2/4
f 413/2/4 411/2/4 414/2/4
f 414/2/4 411/2/4 415/2/4
f 412/2/4 404/2/4 416/2/4
f 416/2/4 404/2/4 417/2/4
f 417/2/4 404/2/4 418/2/4
f 414/2/4 415/2/4 421/2/4
f 415/2/4 416/2/4 421/2/4
f 416/2/4 417/2/4 421/2/4
f 421/2/4 417/2/4 422/2/4
f 419/1/4 420/1/4 425/1/4
f 425/1/4 420/1/4 426/1/4
f 423/1/4 424/1/4 427/1/4
f 427/1/4 424/1/4 428/1/4
f 429/1/4 430/1/4 431/1/4
f 431/1/4 430/1/4 432/1/4
f 433/1/4 434/1/4 435/1/4
f 435/1/4 434/1/4 436/1/4
f 437/1/4 438/1/4 439/1/4
f 439/1/4 438/1/4 440/1/4
f 441/1/4 442/1/4 443/1/4
f 443/1/4 442/1/4 444/1/4
f 445/1/4 446/1/4 447/1/4
f 447/1/4 446/1/4 448/1/4
f 453/1/5 450/1/5 449/1/5
f 454/1/5 450/1/5 453/1/5
f 455/1/5 452/1/5 451/1/5
f 456/1/5 452/1/5 455/1/5
f 461/1/5 458/1/5 457/1/5
f 462/1/5 458/1/5 461/1/5
f 465/1/5 460/1/5 459/1/5
f 466/1/5 460/1/5 465/1/5
f 468/2/5 464/2/5 463/2/5
f 469/2/5 464/2/5 468/2/5
f 471/2/5 468/2/5 467/2/5
f 472/2/5 468/2/5 471/2/5
f 473/2/5 470/2/5 469/2/5
f 474/2/5 470/2/5 473/2/5
f 477/2/5 473/2/5 472/2/5
f 478/2/5 473/2/5 477/2/5
f 481/1/5 476/1/5 475/1/5
f 482/1/5 476/1/5 481/1/5
f 483/1/5 480/1/5 479/1/5
f 484/1/5 480/1/5 483/1/5
f 491/2/5 486/2/5 485/2/5
f 491/2/5 487/2/5 486/2/5
f 492/2/5 487/2/5 491/2/5
f 493/2/5 490/2/5 489/2/5
f 493/2/5 489/2/5 488/2/5
f 494/2/5 490/2/5 493/2/5
f 499/2/5 496/2/5 495/2/5
f 500/2/5 496/2/5 499/2/5
f 501/2/5 496/2/5 500/2/5
f 502/2/5 498/2/5 497/2/5
f 503/2/5 498/2/5 502/2/5
f 504/2/5 498/2/5 503/2/5
f 511/1/5 506/1/5 505/1/5
f 512/1/5 506/1/5 511/1/5
f 513/1/5 508/1/5 507/1/5
f 514/1/5 508/1/5 513/1/5
f 515/1/5 510/1/5 509/1/5
f 516/1/5 510/1/5 515/1/5
f 523/1/5 518/1/5 517/1/5
f 524/1/5 518/1/5 523/1/5
f 525/1/5 520/1/5 519/1/5
f 526/1/5 520/1/5 525/1/5
f 527/1/5 522/1/5 521/1/5
f 528/1/5 522/1/5 527/1/5
f 535/1/5 530/1/5 529/1/5
f 536/1/5 530/1/5 535/1/5
f 537/1/5 532/1/5 531/1/5
f 538/1/5 532/1/5 537/1/5
f 539/1/5 534/1/5 533/1/5
f 540/1/5 534/1/5 539/1/5
f 545/2/5 542/2/5 541/2/5
f 546/2/5 542/2/5 545/2/5
f 547/2/5 544/2/5 543/2/5
f 548/2/5 544/2/5 547/2/5
f 553/1/5 550/1/5 549/1/5
f 554/1/5 550/1/5 553/1/5
f 555/1/5 552/1/5 551/1/5
f 556/1/5 552/1/5 555/1/5
f 561/1/5 558/1/5 557/1/5
f 562/1/5 558/1/5 561/1/5
f 563/1/5 560/1/5 559/1/5
f 564/1/5 560/1/5 563/1/5
f 565/1/6 566/1/6 569/1/6
f 569/1/6 566/1/6 570/1/6
f 567/1/6 568/1/6 571/1/6
f 571/1/6 568/1/6 572/1/6
f 573/1/6 574/1/6 577/1/6
f 577/1/6 574/1/6 578/1/6
f 575/1/6 576/1/6 579/1/6
f 579/1/6 576/1/6 580/1/6
f 581/2/6 582/2/6 585/2/6
f 585/2/6 582/2/6 586/2/6
f 583/2/6 584/2/6 587/2/6
f 587/2/6 584/2/6 588/2/6
f 589/1/6 590/1/6 595/1/6
f 595/1/6 590/1/6 596/1/6
f 591/1/6 592/1/6 597/1/6
f 597/1/6 592/1/6 598/1/6
f 593/1/6 594/1/6 599/1/6
f 599/1/6 594/1/6 600/1/6
f 601/1/6 602/1/6 607/1/6
f 607/1/6 602/1/6 608/1/6
f 603/1/6 604/1/6 609/1/6
f 609/1/6 604/1/6 610/1/6
f 605/1/6 606/1/6 611/1/6
f 611/1/6 606/1/6 612/1/6
f 613/1/6 614/1/6 619/1/6
f 619/1/6 614/1/6 620/1/6
f 615/1/6 616/1/6 621/1/6
f 621/1/6 616/1/6 622/1/6
f 617/1/6 618/1/6 623/1/6
f 623/1/6 618/1/6 624/1/6
f 625/2/6 626/2/6 631/2/6
f 626/2/6 627/2/6 631/2/6
f 631/2/6 627/2/6 632/2/6
f 629/2/6 630/2/6 633/2/6
f 628/2/6 629/2/6 633/2/6
f 633/2/6 630/2/6 634/2/6
f 635/2/6 636/2/6 639/2/6
f 639/2/6 636/2/6 640/2/6
f 640/2/6 636/2/6 641/2/6
f 637/2/6 638/2/6 642/2/6
f 642/2/6 638/2/6 643/2/6
f 643/2/6 638/2/6 644/2/6
f 645/1/6 646/1/6 649/1/6
f 649/1/6 646/1/6 650/1/6
f 647/1/6 648/1/6 653/1/6
f 653/1/6 648/1/6 654/1/6
f 651/2/6 652/2/6 656/2/6
f 656/2/6 652/2/6 657/2/6
f 655/2/6 656/2/6 659/2/6
f 659/2/6 656/2/6 660/2/6
f 657/2/6 658/2/6 661/2/6
f 661/2/6 658/2/6 662/2/6
f 660/2/6 661/2/6 665/2/6
f 665/2/6 661/2/6 666/2/6
f 663/1/6 664/1/6 669/1/6
f 669/1/6 664/1/6 670/1/6
f 667/1/6 668/1/6 671/1/6
f 671/1/6 668/1/6 672/1/6
f 673/1/6 674/1/6 677/1/6
f 677/1/6 674/1/6 678/1/6
f 675/1/6 676/1/6 679/1/6
f 679/1/6 676/1/6 680/1/6
